<?xml version="1.0" standalone="no"?>
<!DOCTYPE svg PUBLIC "-//W3C//DTD SVG 1.1//EN" "http://www.w3.org/Graphics/SVG/1.1/DTD/svg11.dtd" >
<svg xmlns="http://www.w3.org/2000/svg" xmlns:xlink="http://www.w3.org/1999/xlink" version="1.1">
<metadata></metadata>
<defs>
<font id="dsn_singleregular" horiz-adv-x="0" >
<font-face units-per-em="2048" ascent="1638" descent="-410" />
<missing-glyph horiz-adv-x="455" />
<glyph unicode="&#xd;" horiz-adv-x="455" />
<glyph unicode=" "  horiz-adv-x="455" />
<glyph unicode="&#x09;" horiz-adv-x="455" />
<glyph unicode="&#xa0;" horiz-adv-x="455" />
<glyph unicode="!" horiz-adv-x="261" d="M39 67q0 82 73 82q70 0 80 -82q0 -88 -76 -88q-77 0 -77 88zM67 215v730h97v-730h-97z" />
<glyph unicode="&#x22;" horiz-adv-x="391" d="M48 576v369h101v-369h-101zM212 576v369h103v-369h-103z" />
<glyph unicode="#" horiz-adv-x="651" d="M32 287v88h126l18 201h-116v84h125l27 285h86l-30 -285h136l28 285h82l-27 -285h109v-84h-119l-18 -201h108v-88h-117l-29 -285h-78l24 285h-136l-37 -285h-80l35 285h-117zM240 375h137l18 201h-136z" />
<glyph unicode="$" horiz-adv-x="651" d="M86 766q0 162 190 190v110h91v-110h154v-115h-154v-245q83 -57 98 -69q94 -75 94 -198q0 -84 -42 -136q-46 -56 -129 -56l-21 3v-145h-91v145h-181v118h181v253q-61 43 -122 87q-68 66 -68 168zM190 772l4 -18q0 -74 82 -105v192q-51 -17 -73 -32q-4 -8 -8.5 -20 t-4.5 -17zM367 258q5 0 22 -7q61 0 61 57q0 70 -83 151v-201z" />
<glyph unicode="%" horiz-adv-x="1038" d="M45 747q0 97 45 156q51 64 145 64q185 0 185 -213q0 -91 -46 -153q-51 -68 -139 -68q-89 0 -141 64q-49 59 -49 150zM146 754q0 -44 22 -78q25 -39 67 -39q93 0 93 117q0 44 -24 76.5t-67 32.5q-42 0 -66.5 -33t-24.5 -76zM183 -5l509 983h80l-511 -983h-78zM544 215 q0 94 43 154q49 67 140 67q93 0 144 -79q40 -62 40 -142q0 -87 -48 -150q-52 -70 -136 -70q-92 0 -142 77q-41 63 -41 143zM637 215q0 -109 90 -109q91 0 91 109q0 114 -91 114q-43 0 -68 -37q-22 -32 -22 -77z" />
<glyph unicode="&#x26;" horiz-adv-x="777" d="M25 363q0 205 133 320q-53 77 -53 139q0 123 135 123h319v-123h-319q-25 0 -25 -17q0 -7 4 -16q1 -2 12 -23l358 -520q17 73 17 117q0 109 -85 213l85 84q117 -119 117 -285q0 -112 -63 -235l101 -138h-146l-35 54q-44 -34 -72 -47q-57 -25 -141 -25q-67 0 -136 30 q-206 90 -206 349zM140 375q0 -107 59 -184q65 -85 168 -85q88 0 147 54l-283 416q-91 -62 -91 -201z" />
<glyph unicode="'" horiz-adv-x="261" d="M56 669l35 276h101l-55 -276h-81z" />
<glyph unicode="(" horiz-adv-x="441" d="M67 375q0 276 140 466q42 57 106 115l52 -61q-36 -40 -103 -126q-105 -158 -105 -417q0 -142 51 -283q58 -159 157 -236l-45 -82q-192 168 -238 435q-15 86 -15 189z" />
<glyph unicode=")" horiz-adv-x="441" d="M46 884l45 83q109 -80 182 -231q85 -176 85 -384q0 -175 -59 -329q-69 -177 -198 -263l-45 73q200 178 200 480v39q0 155 -47 291q-56 161 -163 241z" />
<glyph unicode="*" horiz-adv-x="594" d="M69 587l153 96l-153 83l45 97l145 -127l-19 209h92l-17 -209l144 127l46 -97l-155 -83l155 -96l-46 -86l-137 105l10 -188h-92l8 188l-134 -105z" />
<glyph unicode="+" horiz-adv-x="610" d="M30 345v103h198v228h87v-228h192v-103h-192v-231h-87v231h-198z" />
<glyph unicode="," horiz-adv-x="309" d="M62 -134l48 274h118l-73 -274h-93z" />
<glyph unicode="-" horiz-adv-x="610" d="M30 345v103h477v-103h-477z" />
<glyph unicode="." horiz-adv-x="309" d="M82 76q0 73 64 73h12q59 0 59 -73q0 -87 -68 -87q-67 0 -67 87z" />
<glyph unicode="/" horiz-adv-x="309" d="M-28 -5l245 983h102l-246 -983h-101z" />
<glyph unicode="0" horiz-adv-x="651" d="M32 319v307q0 138 71 234q79 107 212 107q132 0 214 -113q67 -92 67 -192v-364q0 -116 -68 -208q-78 -106 -206 -106q-147 0 -226 116q-64 94 -64 219zM149 343q0 -226 166 -226q79 0 123 56q39 51 39 133v331q0 86 -37 141q-43 63 -125 63q-166 0 -166 -235v-263z" />
<glyph unicode="1" horiz-adv-x="651" d="M114 829l26 116h227v-943h-108v827h-145z" />
<glyph unicode="2" horiz-adv-x="651" d="M25 103q0 48 44 89l308 287q100 76 100 190q0 76 -47.5 124t-123.5 48q-71 0 -116 -56q-41 -52 -41 -125q0 -156 157 -192l-103 -93q-94 54 -132.5 116.5t-38.5 168.5q0 131 80 219t210 88q142 0 215 -105q59 -85 59 -202q0 -94 -34 -157q-35 -66 -158 -174l-228 -201 h413v-126l-457 -2q-44 0 -75.5 29.5t-31.5 73.5z" />
<glyph unicode="3" horiz-adv-x="651" d="M41 2v115l274 -1q69 0 112 52q39 48 39 119q0 77 -45.5 124.5t-122.5 47.5h-149v94l255 269h-344v123h344q127 0 127 -104q0 -37 -23 -72q-14 -21 -58 -65l-128 -128q117 0 187.5 -76t70.5 -194v-19q0 -119 -58 -198q-64 -87 -179 -87h-302z" />
<glyph unicode="4" horiz-adv-x="651" d="M-2 290q0 38 17 73l283 582h123l-300 -616h238v418l118 220v-638h119v-114h-119v-213h-118v213h-245l-25 -3q-91 0 -91 78z" />
<glyph unicode="5" horiz-adv-x="651" d="M48 2v115l281 -1q72 -5 110 59q27 45 27 112q0 83 -38 124q-46 48 -130 48h-212v486h428v-123h-320v-246h128q267 0 267 -289q0 -100 -53 -187q-62 -100 -156 -100l-13 2h-319z" />
<glyph unicode="6" horiz-adv-x="651" d="M15 329q0 72 16 123q14 44 74 144l210 349h135l-219 -358q-48 -78 -79 -147.5t-31 -141.5q0 -80 53 -136t132 -56q83 0 134 67q47 61 47 146q0 104 -51 167q-55 67 -157 67h-20l73 116q129 0 207 -109q69 -97 69 -231q0 -141 -75 -233q-81 -101 -218 -101q-140 0 -222 99 q-78 93 -78 235z" />
<glyph unicode="7" horiz-adv-x="651" d="M32 822v123h409q128 0 128 -95q0 -45 -19 -96l-282 -752h-138l311 820h-409z" />
<glyph unicode="8" horiz-adv-x="651" d="M25 276q0 141 124 257q-73 57 -73 180q0 107 69.5 175t176.5 68q96 0 162 -68.5t66 -165.5v-18q0 -107 -73 -171q79 -60 106 -120q23 -51 23 -145q0 -126 -82.5 -205t-208.5 -79q-158 0 -234 106q-56 78 -56 186zM140 287q0 -181 175 -181q172 0 172 170q0 83 -45 133 t-127 50q-79 0 -127 -46.5t-48 -125.5zM194 704q0 -53 34 -90.5t87 -37.5q117 15 117 137q0 116 -117 116q-121 0 -121 -125z" />
<glyph unicode="9" horiz-adv-x="651" d="M15 606q0 129 65 222q82 117 242 117q132 0 211 -100q73 -92 73 -228q0 -72 -17 -124q-13 -38 -68 -130l-215 -361h-139l254 416q66 85 66 208q0 80 -45 139q-50 64 -127 64q-194 0 -194 -233q0 -87 61 -151.5t147 -64.5q4 0 11 3t10 3l-63 -110q-151 15 -221 129 q-51 83 -51 201z" />
<glyph unicode=":" horiz-adv-x="309" d="M73 459q0 74 64 74h12q26 0 42 -23.5t16 -50.5q0 -86 -67 -86t-67 86zM82 67q0 73 64 73h12q59 0 59 -73q0 -88 -68 -88q-67 0 -67 88z" />
<glyph unicode=";" horiz-adv-x="309" d="M54 -134l45 274h118l-71 -274h-92zM73 459q0 74 64 74h12q26 0 42 -23.5t16 -50.5q0 -86 -67 -86t-67 86z" />
<glyph unicode="&#x3c;" horiz-adv-x="610" d="M37 322v94l484 247v-101l-379 -195l379 -194v-89z" />
<glyph unicode="=" horiz-adv-x="699" d="M34 256v117h547v-117h-547zM34 511v119h547v-119h-547z" />
<glyph unicode="&#x3e;" horiz-adv-x="699" d="M67 110v112l436 223l-436 224v115l554 -283v-110z" />
<glyph unicode="?" horiz-adv-x="518" d="M25 669q0 125 58 206q65 92 185 92q109 0 175 -85q62 -78 62 -189q0 -104 -50 -183q-58 -92 -157 -92v-192h-104v295q87 0 128 20q73 36 73 142q0 65 -35 114q-39 55 -101 55q-119 0 -119 -183h-115zM167 76q0 73 73 73h11q30 0 50.5 -21.5t20.5 -51.5q0 -87 -74 -87 q-81 0 -81 87z" />
<glyph unicode="@" horiz-adv-x="935" d="M45 448l1 20l-1 21q-8 172 111 325t303 153q199 0 306 -144q83 -111 83 -247q0 -170 -92 -289q-32 -42 -75 -69q-49 -31 -90 -28l-26 2q-32 2 -43 23t-11 53q-54 -76 -127 -76q-81 0 -131 62q-46 57 -46 141l3 23q0 125 63 223q73 113 193 113q88 0 128 -94l18 76h81 l-89 -393q0 -60 29 -60q41 0 88 75q54 86 54 195v16q0 110 -76 204q-90 111 -233 111q-78 0 -158 -52q-74 -49 -118 -120q-62 -100 -62 -233l-2 -17q0 -176 118 -290q103 -99 222 -99q10 0 16 3q72 0 144 37q80 41 105 102h89q-69 -116 -144 -166q-83 -54 -210 -54 q-198 0 -319 159q-110 144 -102 294zM313 418q0 -131 89 -131q62 0 112 89q43 77 43 145v20q0 43 -24.5 75.5t-66.5 32.5q-69 0 -115 -85q-38 -71 -38 -146z" />
<glyph unicode="A" horiz-adv-x="651" d="M41 2v624q0 143 64 235q74 106 210 106q138 0 214 -114q67 -99 67 -243v-608h-109v434h-302v129h302v33q0 254 -165 254q-97 0 -141 -83q-32 -60 -32 -143v-624h-108z" />
<glyph unicode="B" horiz-adv-x="651" d="M48 2v658q0 121 60 205q73 102 207 102q116 0 184 -68.5t68 -185.5q0 -88 -19 -132q-15 -35 -61 -70q128 -55 128 -224v-19q0 -103 -59 -182q-65 -86 -165 -86l-14 2h-174v126h147q155 0 155 148q0 160 -173 160h-129v117h103q153 0 153 140q0 70 -36 113q-39 46 -108 46 q-148 0 -148 -183v-667h-119z" />
<glyph unicode="C" horiz-adv-x="594" d="M41 479q0 202 135 341q121 125 265 125h118v-116h-93q-142 -13 -230 -117q-87 -100 -87 -244q0 -69 23 -137q72 -214 294 -214h93v-115h-145q-184 0 -286 152q-87 131 -87 325z" />
<glyph unicode="D" horiz-adv-x="727" d="M71 2v943h255q126 0 233 -116q122 -132 122 -329v-21q0 -81 -30 -175q-96 -302 -363 -302h-66v126h66l12 -2q126 0 201 131q60 105 60 222v22q0 137 -76 229q-81 99 -215 99h-82v-827h-117z" />
<glyph unicode="E" horiz-adv-x="594" d="M15 468q0 352 274 446q64 22 161 31h71v-116h-62q-130 0 -219 -74q-92 -75 -110 -202h391v-117h-391q0 -101 78 -205q86 -115 181 -115h11l14 1h107v-115h-89q-157 0 -280 121q-137 135 -137 345z" />
<glyph unicode="F" horiz-adv-x="441" d="M21 2v624q0 319 272 319h117v-116h-106q-176 0 -176 -180v-116h282v-115h-282v-416h-107z" />
<glyph unicode="G" horiz-adv-x="907" d="M25 479q0 310 242 439q92 49 184 49q187 0 328 -169l-71 -94q-133 148 -257 148q-151 0 -235 -122q-72 -105 -72 -251q0 -149 75 -254q78 -109 232 -119l15 -1q7 -1 15 -1q105 0 187 107q74 95 74 207h-282v126h403v-119q0 -185 -113 -306q-116 -124 -299 -124 q-198 0 -316 146q-110 136 -110 338z" />
<glyph unicode="H" horiz-adv-x="727" d="M71 2v943h106v-380h346v380h112v-943h-112v434h-346v-434h-106z" />
<glyph unicode="I" horiz-adv-x="261" d="M56 2v943h108v-943h-108z" />
<glyph unicode="J" horiz-adv-x="391" d="M-4 2v115h64q162 0 162 170v658h110v-626q0 -319 -248 -319l-15 2h-73z" />
<glyph unicode="K" horiz-adv-x="651" d="M60 2v943h116v-401h111q32 0 64 46q20 28 53 114l92 241h137l-112 -296q-5 -35 -36 -73.5t-64 -54.5q168 -52 168 -253v-266h-123v266q0 157 -151 157h-139v-423h-116z" />
<glyph unicode="L" horiz-adv-x="441" d="M67 276v669h109v-616q0 -99 30 -150q37 -63 113 -63h9l21 1h89v-115h-125q-87 0 -154 54q-92 74 -92 220z" />
<glyph unicode="M" horiz-adv-x="907" d="M-11 2l89 839q0 48 24 82q28 39 74 39q74 0 102 -110l165 -637l155 626q16 65 44 94t62 29q39 0 66.5 -30.5t27.5 -70.5l93 -861h-121l-73 775l-181 -710q-18 -72 -78 -72q-59 0 -67 61l-194 721l-71 -775h-117z" />
<glyph unicode="N" horiz-adv-x="727" d="M43 2v820q0 51 25 87q29 41 78 41q64 0 96 -78l281 -689v762h112v-878q0 -83 -76 -83q-74 0 -99 61l-300 721v-764h-117z" />
<glyph unicode="O" horiz-adv-x="907" d="M25 490q0 189 108 327q118 150 301 150q107 0 203.5 -54t152.5 -146q73 -119 73 -288q0 -196 -106 -334q-115 -150 -306 -150q-208 0 -322 147q-104 134 -104 348zM140 468q0 -140 80 -246q87 -116 223 -116q164 0 244 130q55 89 55 232q0 160 -72 264q-82 120 -236 120 q-135 0 -217 -117q-73 -105 -73 -245q-4 -10 -4 -22z" />
<glyph unicode="P" horiz-adv-x="594" d="M41 2v635q0 129 66 224q75 106 199 106q94 0 177 -77q97 -91 97 -230q0 -146 -81 -228q-68 -69 -156 -69h-158v116h102l17 -2q155 0 155 183q0 78 -36 126q-41 55 -117 55q-95 0 -130 -75q-27 -57 -27 -179v-585h-108z" />
<glyph unicode="Q" horiz-adv-x="907" d="M15 479q0 184 120 331q128 157 308 157q154 0 276 -112q144 -132 144 -354v-30q0 -167 -88 -296q-94 -138 -252 -173v-189h-117v506h117v-202q115 38 176 147q54 96 54 226q0 136 -81 244q-89 118 -221 118q-147 0 -238 -122q-81 -109 -81 -251q0 -118 58 -220 q65 -116 171 -142v-115q-184 32 -284 216q-62 114 -62 261z" />
<glyph unicode="R" horiz-adv-x="651" d="M48 2v594q0 371 274 371q101 0 173 -77.5t72 -179.5v-17q0 -159 -90 -203q103 -49 103 -192v-296h-114v274q0 142 -151 142h-112v115h95l17 -2q65 0 106 49q38 46 38 113q0 148 -144 148q-81 0 -124 -66q-33 -51 -33 -115v-658h-110z" />
<glyph unicode="S" horiz-adv-x="594" d="M15 2v115h291q111 0 126 109q0 96 -110 160q-47 26 -139 80q-75 45 -115 97q-47 60 -47 136l4 14q0 96 51.5 159t145.5 73h283v-116h-265q-48 0 -78 -35t-30 -84q0 -45 35 -73q18 -14 228 -147q146 -92 146 -244q0 -246 -209 -246l-17 2h-300z" />
<glyph unicode="T" horiz-adv-x="518" d="M-15 829v116h520v-116h-199v-827h-121v827h-200z" />
<glyph unicode="U" horiz-adv-x="651" d="M41 308v637h117v-602q0 -237 157 -237q74 0 116 67q35 56 35 135v637h123v-626q0 -138 -67 -226q-74 -98 -207 -98q-125 0 -202 96q-72 89 -72 217z" />
<glyph unicode="V" horiz-adv-x="651" d="M-41 945h127l236 -785l199 785h130l-237 -869q-9 -32 -25 -52q-24 -29 -67 -29q-46 0 -69 29q-15 19 -31 72z" />
<glyph unicode="W" horiz-adv-x="1038" d="M45 276v669h117v-602q0 -110 21 -159q33 -78 126 -78q60 0 99 47q37 44 37 105v687h117v-687q0 -78 57 -120q43 -32 91 -32q66 0 103 49q33 44 33 113v677h120v-699q0 -128 -89 -197q-70 -54 -157 -54h-25q-60 0 -112 33q-56 34 -74 89q-70 -133 -219 -133 q-118 0 -187 102q-58 86 -58 190z" />
<glyph unicode="X" horiz-adv-x="651" d="M-4 2v126l13 -2q114 0 182 119q57 100 57 223q0 322 -252 354v123q122 0 207 -80q79 -73 112 -196q23 116 112.5 196t205.5 80v-123q-102 0 -175 -76q-91 -95 -91 -278q0 -135 73 -238q72 -104 157 -104h11l25 2v-126l-27 -2h-13q-87 0 -182 88q-96 87 -96 188 q-20 -112 -104 -192q-89 -84 -200 -84z" />
<glyph unicode="Y" horiz-adv-x="594" d="M15 660v285h106v-296q0 -148 155 -148q57 0 99 33q46 36 46 92v319h110v-296q0 -98 -50 -176q-57 -87 -149 -98v-373h-110v373q-69 12 -127 71q-80 82 -80 214z" />
<glyph unicode="Z" horiz-adv-x="594" d="M0 95q0 44 41 131l373 603h-373v116h409q94 0 94 -82q0 -52 -39 -116l-384 -630h429v-115h-455q-95 0 -95 93z" />
<glyph unicode="[" horiz-adv-x="441" d="M128 -229v1174h201v-61h-100v-1051h100v-62h-201z" />
<glyph unicode="\" horiz-adv-x="309" d="M-99 956h99l384 -961h-94z" />
<glyph unicode="]" horiz-adv-x="441" d="M112 -167h98v1039h-98v73h201v-1174h-201v62z" />
<glyph unicode="^" horiz-adv-x="699" d="M67 386l226 549h100l228 -549h-101l-182 436l-174 -436h-97z" />
<glyph unicode="_" horiz-adv-x="489" d="M-4 -82h507v-75h-507v75z" />
<glyph unicode="`" horiz-adv-x="261" d="M39 935h107l39 -275h-94z" />
<glyph unicode="a" horiz-adv-x="651" d="M32 329q0 143 72 233q78 98 218 98q121 0 202.5 -77t81.5 -197v-384h-110v373q0 169 -181 169q-61 0 -113 -43q-72 -59 -72 -172q0 -94 48 -156q53 -67 144 -67q62 0 137 86v-147q-59 -50 -153 -50h-18q-121 0 -193 110q-63 96 -63 224z" />
<glyph unicode="b" horiz-adv-x="651" d="M41 343v592h108v-606q0 -95 38 -158q46 -75 135 -75q84 0 136 71q47 65 47 152q0 91 -40 153q-47 72 -133 72q-42 0 -80 -19q-22 -12 -67 -35v116q68 50 153 50q124 0 203 -96q74 -90 74 -217q0 -145 -72 -246q-81 -113 -221 -113q-142 0 -217 113q-64 96 -64 246z" />
<glyph unicode="c" horiz-adv-x="441" d="M39 319q0 109 64 203q78 115 210 115h107v-116h-82q-64 0 -114 -41q-67 -55 -67 -161q0 -80 40 -139q43 -64 115 -64h8l18 1h82v-115h-116q-135 0 -208 115q-57 90 -57 202z" />
<glyph unicode="d" horiz-adv-x="651" d="M21 328q0 150 88 242q76 79 167 79q107 0 165 -43v-127q-68 54 -154 54q-77 0 -126 -72q-42 -63 -42 -144l2 -19q21 -202 194 -202q162 0 162 279v560h112v-622q0 -107 -60 -204q-78 -125 -212 -125h-11q-137 0 -212 96q-69 88 -69 228q-4 12 -4 20z" />
<glyph unicode="e" horiz-adv-x="651" d="M25 308q0 170 96 268q82 84 194 84q170 0 274 -212l-386 -245l-45 95l274 181q-34 42 -49 50q-28 15 -68 15q-89 0 -140 -76q-45 -67 -45 -160q0 -87 48 -147q52 -65 137 -65q87 0 126 53q29 39 55 149l100 -11v-28q0 -96 -69 -178q-82 -97 -212 -97q-132 0 -214 97 q-76 92 -76 227z" />
<glyph unicode="f" horiz-adv-x="309" d="M54 2v702q0 132 72 191q49 40 118 40h92v-113h-75q-68 0 -92 -50q-17 -34 -17 -83q0 -10 1 -20l2 -32h164v-116h-164v-519h-101z" />
<glyph unicode="g" horiz-adv-x="651" d="M32 319q0 174 103 267q82 74 187 74q122 0 203 -92.5t81 -215.5v-350q0 -50 -16 -104q-63 -213 -284 -213q-108 0 -192 43l26 105q92 -30 166 -30q81 0 135.5 52t54.5 132v311q0 91 -40 162q-49 84 -134 84q-97 0 -148 -77q-44 -67 -44 -169q0 -86 53 -144t139 -58 q80 0 137 53v-124q-52 -41 -144 -41q-143 0 -217 99q-66 89 -66 236z" />
<glyph unicode="h" horiz-adv-x="594" d="M48 2v943h101v-349q81 73 157 73q96 0 155.5 -62t59.5 -159v-446h-100v384q0 65 -28 112q-34 55 -95 55q-72 0 -113 -55q-36 -48 -36 -123v-373h-101z" />
<glyph unicode="i" horiz-adv-x="309" d="M89 798q0 65 66 65q62 0 62 -65q0 -71 -62 -71q-66 0 -66 71zM99 2v647h100v-647h-100z" />
<glyph unicode="j" horiz-adv-x="261" d="M-78 -177h57q96 0 96 161v665h101v-731q0 -88 -57 -148t-144 -60h-53v113zM67 788q0 75 61 75q64 0 64 -75q0 -71 -64 -71q-61 0 -61 71z" />
<glyph unicode="k" horiz-adv-x="518" d="M48 2v943h101v-527h54q62 0 112 103l62 128h119q-34 -76 -114 -217q-29 -42 -50 -46q61 -8 96 -60q31 -47 31 -111v-213h-100v169q0 127 -119 127h-91v-296h-101z" />
<glyph unicode="l" horiz-adv-x="261" d="M67 2v943h109v-943h-109z" />
<glyph unicode="m" horiz-adv-x="852" d="M62 2v446q0 93 58 152.5t150 59.5q111 0 155 -84q53 84 166 84q80 0 138.5 -55t58.5 -134v-469h-98v428q0 42 -28 81q-31 42 -71 42q-48 0 -80 -42.5t-32 -92.5v-416h-99v404q0 147 -110 147q-110 -10 -110 -158v-393h-98z" />
<glyph unicode="n" horiz-adv-x="594" d="M60 2v393q0 117 63 193q68 81 183 81q74 0 138 -50q87 -68 87 -198v-419h-110v384q0 167 -123 167q-124 0 -140 -158v-393h-98z" />
<glyph unicode="o" horiz-adv-x="651" d="M32 343q0 132 74 225q81 101 209 101q116 0 196 -77q95 -92 95 -263q0 -124 -68 -221q-79 -113 -206 -113q-151 0 -229 101q-71 92 -71 247zM140 343q0 -97 38 -160q46 -77 137 -77q181 0 181 237q0 210 -181 210q-85 0 -133 -65q-42 -57 -42 -145z" />
<glyph unicode="p" horiz-adv-x="651" d="M41 -283v612q0 168 96 262q80 78 185 78q153 0 232 -121q61 -93 61 -219q0 -124 -55 -219q-73 -126 -217 -126q-76 0 -167 50v126q91 -54 156 -54q173 0 173 223q0 87 -47 152q-52 72 -136 72q-61 0 -114 -54q-68 -70 -68 -191v-591h-99z" />
<glyph unicode="q" horiz-adv-x="651" d="M25 319q0 350 281 350h16q99 0 177 -81q90 -93 90 -245v-626h-102v591q0 95 -38 162q-46 83 -134 83q-72 0 -125 -47q-69 -61 -69 -177q0 -96 44 -156q49 -67 141 -67q90 0 144 65v-137q-58 -39 -152 -39h-19q-117 0 -190 108q-64 95 -64 216z" />
<glyph unicode="r" horiz-adv-x="309" d="M37 2v647h100v-62q49 82 135 82h37v-116h-26q-95 -13 -128 -110q-18 -53 -18 -145v-296h-100z" />
<glyph unicode="s" horiz-adv-x="518" d="M25 2v115l268 -1h5q69 0 69 55q0 48 -71 80q-17 8 -111 36q-76 23 -118 70t-42 122q0 99 61 139q49 31 154 31h210v-105h-219q-101 0 -101 -54q0 -45 62 -71q44 -13 106 -33q90 -37 129 -77q50 -52 50 -138q0 -102 -66 -143q-46 -28 -109 -28h-12l-42 2h-223z" />
<glyph unicode="t" horiz-adv-x="391" d="M69 215v594h107v-160h212v-116h-212v-330q0 -43 9 -59q15 -27 63 -27h129v-115h-137l-18 -2q-79 0 -120 72q-33 58 -33 143z" />
<glyph unicode="u" horiz-adv-x="594" d="M48 276v373h101v-391q0 -162 138 -162q58 0 95 59q32 52 32 113v381h100v-398q0 -109 -58 -184q-63 -83 -169 -83q-239 0 -239 292z" />
<glyph unicode="v" horiz-adv-x="518" d="M-32 649h118l173 -509l155 509h117l-188 -582q-12 -36 -38 -58t-54 -22q-57 0 -84 80z" />
<glyph unicode="w" horiz-adv-x="852" d="M52 215v434h108v-414q0 -129 89 -129q68 0 93 44q19 33 19 108v391h110v-414q0 -129 109 -129q92 0 92 152v391h98v-462q0 -74 -52 -137q-55 -66 -127 -66q-120 0 -175 92q-61 -92 -167 -92q-100 0 -155 87q-42 67 -42 144z" />
<glyph unicode="x" horiz-adv-x="441" d="M-5 2v115q71 0 122 72q47 67 47 140q0 80 -45.5 140t-123.5 75v105q150 0 215 -148q30 82 111 121q56 27 117 27v-105q-173 -21 -173 -215q0 -83 44 -144q48 -68 129 -68v-115q-153 0 -228 147q-66 -147 -215 -147z" />
<glyph unicode="y" horiz-adv-x="594" d="M41 226v423h108v-362q0 -181 138 -181q60 0 91 54q26 44 26 108v381h110v-409q0 -92 -46 -157q-49 -71 -136 -88v-278h-101v278q-190 57 -190 231z" />
<glyph unicode="z" horiz-adv-x="441" d="M15 78q0 37 31 82l258 373h-265v116h290q92 0 92 -90q0 -27 -9 -52q-7 -18 -28 -48l-247 -353h293v-104h-339q-32 0 -54 22t-22 54z" />
<glyph unicode="{" horiz-adv-x="441" d="M21 308v87q47 0 71 48q20 38 20 90v244q0 62 27 110q32 58 90 58h91v-61h-55q-45 0 -45 -118v-255q0 -114 -83 -159q52 -39 69 -78q14 -34 14 -103v-253q0 -85 65 -85h44v-73h-68q-89 0 -121 60q-21 39 -21 120v200q0 168 -98 168z" />
<glyph unicode="|" horiz-adv-x="261" d="M67 2v943h97v-943h-97z" />
<glyph unicode="}" horiz-adv-x="441" d="M101 -177h45q38 0 49 26q6 14 6 60v262q0 146 103 181q-103 16 -103 159v277q0 51 -8 68q-13 28 -56 28h-36v72h63q140 0 140 -168v-235q0 -49 21 -101q26 -66 68 -66v-78q-89 -19 -89 -168v-243q0 -146 -158 -146h-45v72z" />
<glyph unicode="~" horiz-adv-x="699" d="M67 308q68 117 134 117q48 0 108 -29q132 -64 150 -64q55 0 98 93l47 -82q-49 -117 -145 -117q-30 0 -147 63q-56 30 -102 30q-32 0 -57 -27q-17 -18 -41 -66z" />
<glyph unicode="&#xa1;" horiz-adv-x="777" d="M0 0v517q0 126 92 218t218 92t218 -92t92 -218v-517h-103v517q0 84 -61.5 145.5t-145.5 61.5q-83 0 -145 -62t-62 -145v-517h-103z" />
<glyph unicode="&#xa2;" horiz-adv-x="724" d="M0 285v202q0 7 4 19q5 8 12 13l85 93q13 23 13 33v182h104v-222q0 -14 -5 -19q-2 -9 -10 -15l-82 -93q-10 -6 -13 -15q-5 -4 -5 -18v-160q0 -76 53 -129t129 -53q78 0 129 52t51 130v542h104v-542q0 -137 -74 -211t-210 -74q-131 0 -208 77t-77 208z" />
<glyph unicode="&#xa3;" horiz-adv-x="620" d="M0 227v279l76 105v61q0 13 -9 31q-13 22 -52 22q-10 -1 -15 -1v103q23 -32 54 -32q45 0 74 10q31 14 54 22v-256l-79 -106v-238q0 -48 41.5 -86t89.5 -38q43 0 86 40.5t43 83.5v600h102v-600q0 -72 -68 -146q-74 -81 -163 -81q-94 0 -164 66.5t-70 160.5z" />
<glyph unicode="&#xa4;" horiz-adv-x="777" d="M0 0v517q0 131 89.5 220.5t220.5 89.5q130 0 220 -90t90 -220v-517h-103v517q0 90 -58.5 148.5t-148.5 58.5q-88 0 -147.5 -59.5t-59.5 -147.5v-52h207v-102h-207v-363h-103z" />
<glyph unicode="&#xa5;" horiz-adv-x="777" d="M0 0v530q0 82 43 158q57 101 175 139q32 -48 94 -48q59 0 92 48q108 -34 172 -141q44 -74 44 -156v-530h-103v530q0 55 -29 103q-22 46 -74 79q-51 -40 -104 -40q-56 0 -102 40q-53 -37 -76 -79q-29 -54 -29 -103v-65h207v-102h-207v-363h-103z" />
<glyph unicode="&#xa6;" horiz-adv-x="827" d="M0 0v465h52v207q0 39 -30 48q-9 2 -22 4v103q38 -25 79 -25q37 0 76 25v-517q0 -82 63 -144.5t145 -62.5t140.5 62.5t58.5 144.5v517h110v-517q0 -129 -90 -219.5t-219 -90.5q-175 0 -249 132l-31 -132h-83z" />
<glyph unicode="&#xa7;" horiz-adv-x="708" d="M4 224l82 86q10 -77 60 -139q56 -69 129 -69q12 0 19 1q155 21 155 207v414h-208v103h313v-517q0 -124 -66 -213q-74 -97 -194 -97q-109 0 -188 58q-82 61 -102 166z" />
<glyph unicode="&#xa8;" horiz-adv-x="777" d="M0 539q0 124 94 208q90 80 216 80q130 0 220 -90t90 -220v-517h-103v363h-207v102h207v52q0 86 -60.5 146.5t-146.5 60.5q-89 0 -148 -64t-59 -154z" />
<glyph unicode="&#xa9;" horiz-adv-x="777" d="M0 310v238h103v-238q0 -207 182 -207q180 0 180 207v310q0 22 -9 41q-14 23 -20 35q-6 8 -37 20q-21 8 -36 8h-363l41 103h322q85 0 148 -60q58 -57 58 -147v-155h51v-465h-81l-30 132q-96 -132 -224 -132q-136 0 -213 88q-72 83 -72 222z" />
<glyph unicode="&#xaa;" horiz-adv-x="724" d="M0 285v202q0 7 4 19q5 8 12 13l85 93q13 23 13 33v182h104v-222q0 -14 -5 -19q-2 -9 -10 -15l-82 -93q-10 -6 -13 -15q-5 -4 -5 -18v-160q0 -76 53 -129t129 -53q78 0 129 52t51 130v202q0 35 -24.5 59t-59.5 24q-11 0 -18 -1v103q10 -1 14 -1q37 0 65 29q23 24 23 55 v126h104v-126q0 -77 -36 -114q-12 -12 -36 -21q34 -19 48 -40q24 -36 24 -86v-209q0 -137 -74 -211t-210 -74q-131 0 -208 77t-77 208z" />
<glyph unicode="&#xab;" horiz-adv-x="724" d="M0 285v202q0 18 14 34l78 91q14 16 14 33v65q0 24 -9 24q-6 0 -23 -10q-26 -15 -54 -15q-20 0 -20 15v125q7 -14 13 -20q21 -21 56 -21q18 0 44 14q61 32 68 32q28 0 28 -63v-187q0 -13 -15 -35l-77 -89q-14 -25 -14 -35v-160q0 -76 53 -129t129 -53q78 0 129 52t51 130 v202q0 37 -23.5 59.5t-78.5 22.5v103q59 0 82 24q20 26 20 59v126h104v-126q0 -77 -36 -114q-12 -12 -36 -21q34 -19 48 -40q24 -36 24 -86v-209q0 -137 -74 -211t-210 -74q-131 0 -208 77t-77 208z" />
<glyph unicode="&#xac;" horiz-adv-x="1023" d="M0 0v539q0 122 68 202q73 86 192 86t190 -86q67 -81 67 -202v-336q0 -40 43 -71q40 -29 82 -29q41 0 82.5 30t41.5 70v624h103v-619q0 -85 -70.5 -146.5t-156.5 -61.5q-51 0 -99 29t-69 74l-29 -103h-82v414h51v125q0 77 -37 128q-42 57 -117 57q-76 0 -119 -56 q-38 -51 -38 -129v-539h-103z" />
<glyph unicode="&#xad;" horiz-adv-x="610" d="M30 345v103h477v-103h-477z" />
<glyph unicode="&#xae;" horiz-adv-x="777" d="M0 0v539q0 124 94 208q90 80 216 80t216 -80q94 -84 94 -208v-611q0 -80 -53 -134t-137 -54h-389l42 105h352q36 0 59 23t23 60v611q0 82 -64 135q-60 50 -143 50t-143 -50q-64 -54 -64 -135v-539h-103z" />
<glyph unicode="&#xaf;" horiz-adv-x="777" d="M0 0v539q0 124 94 208q90 80 216 80t216 -80q94 -84 94 -208v-591q0 -85 -52 -145q-55 -63 -138 -63q-49 0 -83 20q-17 10 -37 32q-10 -12 -36 -35q-27 -17 -49 -17h-184l42 105h99q35 0 58 15q28 20 28 61h83q0 -31 26.5 -53.5t57.5 -22.5q82 0 82 103v591q0 82 -64 135 q-60 50 -143 50t-143 -50q-64 -54 -64 -135v-539h-103z" />
<glyph unicode="&#xb0;" horiz-adv-x="777" d="M0 539q0 124 94 208q90 80 216 80q49 0 104 -17l31 -13q17 -7 30 -16t26 -20q9 -8 15 -6q3 2 3 11q-2 19 -2 25v141h103v-932h-103v363h-207v102h207v52q0 86 -60.5 146.5t-146.5 60.5q-89 0 -148 -64t-59 -154zM41 -260l42 105h99q31 0 58.5 17t27.5 55h83 q0 -32 25.5 -52t58.5 -20q82 0 82 72v11h103v-11q0 -80 -54.5 -128.5t-135.5 -48.5q-80 0 -120 52q-11 -14 -16 -20q-27 -32 -69 -32h-184z" />
<glyph unicode="&#xb1;" horiz-adv-x="827" d="M-27 703v124q26 -36 45 -36q46 0 80 11q20 6 57 25v-124q72 124 208 124t222.5 -87t86.5 -223v-517h-110v517q0 95 -52.5 151t-146.5 56q-84 0 -146 -61.5t-62 -145.5v-517h-103v672q0 27 -12 42q-19 16 -33 16q-18 0 -34 -27z" />
<glyph unicode="&#xb2;" horiz-adv-x="1023" d="M0 0v548q0 75 40 148q54 99 168 133q19 -52 77 -52q56 0 78 50q111 -31 169 -134q37 -66 37 -145v-345q0 -41 29.5 -70.5t70.5 -29.5q40 0 68.5 30t28.5 70v624h103v-619q0 -86 -57 -147t-143 -61q-94 0 -146 101l-26 -101h-83v414h51v134q0 53 -21 94q-17 33 -67 70 q-41 -40 -92 -40q-50 0 -94 38q-42 -28 -63 -68q-25 -47 -25 -94v-548h-103z" />
<glyph unicode="&#xb3;" horiz-adv-x="1023" d="M0 0v517q0 135 61 218q69 92 199 92q129 0 197 -93q60 -82 60 -217v-314q0 -41 29 -70.5t70 -29.5t69.5 29.5t28.5 70.5v624h104v-362h51v-465h-83l-27 103q-40 -90 -143 -103q-8 -1 -19 -1q-75 0 -129.5 55.5t-54.5 130.5q0 12 1 18v314q0 84 -34 140q-41 67 -120 67 q-81 0 -122 -66q-35 -55 -35 -141v-517h-103z" />
<glyph unicode="&#xb4;" horiz-adv-x="777" d="M0 0v517q0 129 90.5 219.5t219.5 90.5q130 0 220 -90t90 -220v-517h-103v517q0 87 -60.5 147t-148.5 60q-86 0 -145.5 -60t-59.5 -147v-414h207v-103h-310z" />
<glyph unicode="&#xb5;" horiz-adv-x="777" d="M0 0v517q0 94 43 171q56 101 175 139q32 -48 94 -48q59 0 92 48q109 -34 172 -141q44 -74 44 -169v-517h-103v517q0 68 -29 116q-22 46 -74 79q-51 -40 -104 -40q-56 0 -102 40q-53 -37 -76 -79q-29 -54 -29 -116v-414h207v-103h-310z" />
<glyph unicode="&#xb6;" horiz-adv-x="777" d="M0 0v348q0 41 31.5 79t71.5 38h-103v6q0 356 310 356q126 0 216 -78q94 -81 94 -205v-544h-103v539q0 82 -64 135q-60 50 -143 50q-88 0 -144 -48q-60 -50 -60 -137h154v-74q-157 0 -157 -155v-207h207v-103h-310z" />
<glyph unicode="&#xb7;" horiz-adv-x="777" d="M0 0v827h103v-124q55 124 207 124q126 0 218 -92t92 -218v-517h-103v517q0 84 -61.5 145.5t-145.5 61.5q-83 0 -145 -62t-62 -145v-517h-103z" />
<glyph unicode="&#xb8;" horiz-adv-x="777" d="M0 683q0 75 70 113q57 31 138 31h412l-70 -103h-380q-67 0 -67 -36q0 -34 61 -43l314 -48q80 -12 120 -74q22 -34 22 -84v-113q0 -142 -69 -230q-76 -96 -214 -96q-139 0 -215 95q-70 87 -70 230v167l103 -16v-150q0 -93 43 -154q50 -69 139 -69q91 0 138 69 q42 59 42 154v81q0 32 -15 49q-13 22 -69 32l-334 60q-29 5 -60 39q-39 42 -39 96z" />
<glyph unicode="&#xb9;" horiz-adv-x="777" d="M0 310v517h103v-517q0 -87 47 -145q50 -62 135 -62q86 0 135 62q45 57 45 145v517h104v-362h51v-465h-81l-27 103q-96 -103 -227 -103q-126 0 -207 93q-78 89 -78 217z" />
<glyph unicode="&#xba;" horiz-adv-x="777" d="M0 310v517h103v-517q0 -96 55.5 -151.5t151.5 -55.5q97 0 152 54.5t55 152.5v517h103v-517q0 -141 -84.5 -225.5t-225.5 -84.5t-225.5 84.5t-84.5 225.5z" />
<glyph unicode="&#xbb;" horiz-adv-x="777" d="M0 310v517h103v-517q0 -96 55.5 -151.5t151.5 -55.5q97 0 152 54.5t55 152.5v699h103v-699q0 -141 -84.5 -225.5t-225.5 -84.5t-225.5 84.5t-84.5 225.5z" />
<glyph unicode="&#xbc;" horiz-adv-x="910" d="M0 254v573h208v-103h-105v-470q0 -151 115 -151q114 0 114 151v573h103v-573q0 -151 109 -151q108 0 108 151v573h103v-573q0 -108 -48 -176q-56 -78 -159 -78q-90 0 -139 51q-16 17 -31 52q-12 -35 -27 -51q-47 -52 -138 -52q-106 0 -163 76q-50 68 -50 178z" />
<glyph unicode="&#xbd;" horiz-adv-x="910" d="M0 254v573h208v-103h-105v-470q0 -151 115 -151q114 0 114 151v573h103v-573q0 -151 109 -151q108 0 108 151v755h103v-755q0 -108 -48 -176q-56 -78 -159 -78q-90 0 -139 51q-16 17 -31 52q-12 -35 -27 -51q-47 -52 -138 -52q-106 0 -163 76q-50 68 -50 178z" />
<glyph unicode="&#xbe;" horiz-adv-x="899" d="M0 254v573h103v-573q0 -56 26 -100q31 -51 84 -51q108 0 108 151v573h102v-573q0 -151 110 -151q109 0 109 151v573h102v-573q0 -108 -47 -176q-55 -78 -158 -78q-92 0 -140 51q-16 17 -31 52q-11 -35 -25 -51q-44 -52 -135 -52q-208 0 -208 254z" />
<glyph unicode="&#xbf;" horiz-adv-x="899" d="M0 254v573h103v-573q0 -56 26 -100q31 -51 84 -51q108 0 108 151v573h102v-573q0 -151 110 -151q109 0 109 151v755h102v-755q0 -108 -47 -176q-55 -78 -158 -78q-92 0 -140 51q-16 17 -31 52q-11 -35 -25 -51q-44 -52 -135 -52q-208 0 -208 254z" />
<glyph unicode="&#xc0;" horiz-adv-x="827" d="M0 0v103h52v414q0 141 85.5 225.5t225.5 84.5t224.5 -84.5t84.5 -225.5v-517h-110v517q0 91 -54.5 149t-144.5 58q-91 0 -149.5 -58t-58.5 -149v-517h-155z" />
<glyph unicode="&#xc1;" horiz-adv-x="827" d="M0 0v465h52v362h103v-517q0 -82 63 -144.5t145 -62.5t140.5 62.5t58.5 144.5v517h110v-517q0 -129 -90 -219.5t-219 -90.5q-175 0 -249 132l-31 -132h-83z" />
<glyph unicode="&#xc2;" horiz-adv-x="777" d="M0 310q0 70 46 138q15 22 47 54q-93 39 -93 150q0 76 63 129q59 50 136 50q53 0 91 -29v-102q-18 38 -86 38q-101 0 -101 -86q0 -72 76 -90q67 38 111 38v-94q-187 -32 -187 -196q0 -90 58.5 -148.5t148.5 -58.5t150 71q57 67 57 158v495h103v-495q0 -145 -81 -237 q-85 -95 -229 -95q-128 0 -219 91t-91 219z" />
<glyph unicode="&#xc3;" horiz-adv-x="614" d="M0 597q0 97 70.5 171.5t167.5 74.5q140 0 209 -143l-74 -96q-26 137 -135 137q-55 0 -95 -44.5t-40 -99.5q0 -79 124 -132q82 -35 109 -50q125 -70 125 -181q0 -97 -68.5 -165.5t-165.5 -68.5q-119 0 -194 103l46 95q52 -95 148 -95q55 0 93.5 38t38.5 93q0 74 -132 129 q-112 47 -155 82q-72 60 -72 152z" />
<glyph unicode="&#xc4;" horiz-adv-x="777" d="M0 0v517q0 126 92 218t218 92t218 -92t92 -218v-725h-103v725q0 84 -61.5 145.5t-145.5 61.5q-83 0 -145 -62t-62 -145v-517h-103z" />
<glyph unicode="&#xc5;" horiz-adv-x="777" d="M0 559q18 118 104.5 193t205.5 75q121 0 210 -62q100 -71 100 -187v-578h-103v414l-20 -14q-53 -37 -187 -37q-165 0 -193 -88q-7 -22 -7 -46q0 -70 58 -105q41 -25 91 -25q59 0 92 37v-105q-56 -31 -117 -31q-95 0 -163.5 69.5t-68.5 164.5q0 231 308 231q196 0 207 113 q1 5 1 14q0 67 -74 104q-59 28 -134 28q-89 0 -148 -68.5t-59 -158.5z" />
<glyph unicode="&#xc6;" horiz-adv-x="825" d="M0 0v103h52v414q0 141 85.5 225.5t225.5 84.5q141 0 225 -84t84 -226v-725h-110v725q0 91 -54.5 149t-144.5 58q-91 0 -149.5 -58t-58.5 -149v-517h-155z" />
<glyph unicode="&#xc7;" horiz-adv-x="777" d="M2 550q0 114 98 205q95 88 210 88q132 0 221 -96.5t89 -229.5v-207q0 -133 -88.5 -221.5t-221.5 -88.5q-192 0 -272 162l91 49q52 -108 181 -108q89 0 148 59t59 148v207q0 92 -57 156q-60 68 -150 68q-81 0 -144 -71t-63 -153z" />
<glyph unicode="&#xc8;" horiz-adv-x="777" d="M0 0v517q0 143 83.5 226.5t226.5 83.5q94 0 177 -65q31 -24 27 -25q2 6 3 13v129h103v-879h-103v517q0 86 -60.5 146.5t-146.5 60.5q-87 0 -147 -60t-60 -147v-52h207v-102h-207v-363h-103z" />
<glyph unicode="&#xc9;" horiz-adv-x="777" d="M0 310v517h103v-517q0 -89 59 -148t148 -59q90 0 148.5 58.5t58.5 148.5v155h-207v104h207v258h103v-258h52v-104h-52v-155q0 -141 -84.5 -225.5t-225.5 -84.5t-225.5 84.5t-84.5 225.5z" />
<glyph unicode="&#xca;" horiz-adv-x="777" d="M0 559q20 118 105.5 193t204.5 75q96 0 178 -48q19 -19 23 -19q3 0 4.5 2.5t1.5 14.5v102h103v-879h-103v435q-22 -34 -56 -48q-47 -20 -151 -23q-99 -4 -145 -27q-62 -31 -62 -98q0 -59 45 -98.5t105 -39.5q63 0 98 35v-105q-56 -31 -117 -31q-95 0 -163.5 69.5 t-68.5 164.5q0 231 308 231q196 0 207 113q1 5 1 14q0 67 -74 104q-59 28 -134 28q-89 0 -148 -68.5t-59 -158.5z" />
<glyph unicode="&#xcb;" horiz-adv-x="777" d="M0 0v827h103v-175v-13q-1 -7 -1 -8q0 -14 8 -15q13 -2 22 11l47 31q20 8 59 27l238 142h176l-238 -139q44 -15 71 -34q8 -5 48 -43q32 -30 52 -69q35 -68 35 -150v-392h-103v392q0 86 -60.5 147t-146.5 61t-146.5 -61t-60.5 -147v-392h-103z" />
<glyph unicode="&#xcc;" horiz-adv-x="899" d="M0 290v537h103v-537q0 -187 105 -187q113 0 113 187v434h102v-434q0 -187 105 -187q114 0 114 187v537h-228v105h228v77h102v-719q0 -112 -51 -194q-59 -96 -165 -96q-92 0 -135 64q-14 21 -25 65q-11 -43 -25 -64q-44 -65 -135 -65q-108 0 -163 96q-45 78 -45 194z" />
<glyph unicode="&#xcd;" horiz-adv-x="777" d="M0 310v155h310v-102h-207v-53q0 -87 60 -147t147 -60t147 60t60 147v207q0 91 -58 149t-149 58q-162 0 -207 -136l-103 32q31 101 119 156q81 51 191 51q132 0 221 -89t89 -221v-207q0 -129 -90.5 -219.5t-219.5 -90.5q-128 0 -219 91t-91 219z" />
<glyph unicode="&#xce;" horiz-adv-x="777" d="M0 310v155h310v-102h-207v-53q0 -87 60 -147t147 -60t147 60t60 147v207q0 91 -58 149t-149 58q-154 0 -207 -136l-103 32q74 207 310 207q54 0 94 -17q28 -12 81 -48q1 -1 13 -14q9 -10 14 -9q6 0 6 11q-1 11 -1 16v113h103v-569q0 -129 -90.5 -219.5t-219.5 -90.5 q-128 0 -219 91t-91 219z" />
<glyph unicode="&#xcf;" horiz-adv-x="808" d="M31 672q0 105 81 155l72 -74q-48 -24 -48 -81q0 -75 68 -118q58 -37 137 -37q87 0 147 60t60 147v103h104v-827h-104v506q-106 -92 -207 -92q-122 0 -211 67q-99 73 -99 191z" />
<glyph unicode="&#xd0;" horiz-adv-x="442" d="M0 207q0 68 43.5 112t111.5 44q69 0 112 -43.5t43 -112.5t-43 -112t-112 -43t-112 43.5t-43 111.5zM0 621q0 68 43.5 112t111.5 44q69 0 112 -43.5t43 -112.5t-43 -112.5t-112 -43.5t-112 43.5t-43 112.5zM82 207q0 -71 73 -71q74 0 74 71q0 72 -74 72q-73 0 -73 -72z M82 620q0 -72 73 -72q74 0 74 72q0 73 -74 73q-73 0 -73 -73z" />
<glyph unicode="&#xd1;" d="M-620 982v208h103v-103h438v-105h-541z" />
<glyph unicode="&#xd2;" horiz-adv-x="554" d="M-14 724q72 119 191 119q90 0 156.5 -66.5t66.5 -156.5v-620h-110v620q0 49 -34.5 85t-83.5 36q-89 0 -127 -108z" />
<glyph unicode="&#xd3;" horiz-adv-x="517" d="M-362 1087q0 -69 42.5 -112t111.5 -43t112 43.5t43 111.5t-43.5 111.5t-111.5 43.5t-111 -43.5t-43 -111.5zM-289 1089q0 81 81 81q84 0 84 -85q0 -81 -81 -81q-84 0 -84 85zM-2 724q62 103 189 103q92 0 156 -57q68 -60 68 -150v-620h-103v620q0 48 -39 78 q-35 26 -85 26q-96 0 -126 -91z" />
<glyph unicode="&#xd4;" d="M-724 982v105h569v-105h-569z" />
<glyph unicode="&#xd5;" d="M-724 982v105h464v103h105v-208h-569z" />
<glyph unicode="&#xd6;" d="M-724 932v103h304v41q0 54 37 92t91 38q55 0 92.5 -37.5t37.5 -92.5q0 -56 -37 -100t-91 -44h-434zM-362 1076q0 -72 72 -72t72 72t-72 72t-72 -72z" />
<glyph unicode="&#xd7;" d="M-752 982v105h332v103h83v-208h-415zM-260 982v208h105v-208h-105z" />
<glyph unicode="&#xd8;" d="M-363 -155h208v-259h-105v154h-103v105z" />
<glyph unicode="&#xd9;" d="M-562 -103h101v-52q0 -42 28 -73.5t70 -31.5q43 0 71.5 31t28.5 74v52h105v-52q0 -86 -60 -147t-146 -61q-84 0 -141 61.5t-57 146.5v52z" />
<glyph unicode="&#xda;" d="M-274 -170q0 67 66 67t66 -67q0 -68 -66 -68t-66 68z" />
<glyph unicode="&#xdb;" d="M-762 1137v105h607v-105h-607z" />
<glyph unicode="&#xdc;" d="M-762 1087v103h519v104h102v-207h-621z" />
<glyph unicode="&#xdd;" d="M-777 1076v102h409v28q0 53 38.5 91.5t91.5 38.5q54 0 91 -38t37 -92q0 -56 -36 -93t-92 -37h-539zM-309 1206q0 -73 71 -73t71 73q0 74 -71 74t-71 -74z" />
<glyph unicode="&#xde;" d="M-777 1087v103h357v104h83v-207h-440zM-260 1087v207h105v-207h-105z" />
<glyph unicode="&#xdf;" horiz-adv-x="736" d="M47 2v636q0 106 50 182q53 83 152 107v140h99v-133q200 -31 200 -244q0 -85 -19 -128q-15 -34 -58 -68q124 -53 124 -217v-17q0 -100 -57 -176q-63 -84 -160 -84l-14 2h-16v-164h-99v164h-53v122h53v298h-53v113h53v278q-87 -37 -87 -166v-645h-115zM348 124 q65 0 102.5 39t37.5 104q0 153 -140 153v-296zM348 542q96 25 96 129q0 119 -96 147v-276z" />
<glyph unicode="&#xe0;" horiz-adv-x="285" d="M27 0v827h102v-827h-102z" />
<glyph unicode="&#xe1;" horiz-adv-x="517" d="M0 0v827h103v-827h-103zM253 0v827h110v-827h-110z" />
<glyph unicode="&#xe2;" horiz-adv-x="292" d="M31 0v1294q0 86 61 146t146 60h207l52 -103h-259q-43 0 -72.5 -28.5t-29.5 -74.5v-1294h-105z" />
<glyph unicode="&#xe3;" horiz-adv-x="292" d="M-150 1324q68 176 264 176q101 0 164 -67.5t63 -168.5q0 -119 -68 -179q-86 -51 -116 -77q-21 -18 -21 -76v-932h-105v982q0 64 31 83q21 13 123 74q53 40 53 125q0 109 -124 133q-15 3 -28 3q-59 0 -105 -45q-41 -42 -53 -103z" />
<glyph unicode="&#xe4;" horiz-adv-x="292" d="M-227 1397l50 103h98l53 -51l53 51h109q92 0 102 -4q27 -12 27 -84q0 -18 -64.5 -88t-64.5 -138v-1186h-105v1184q0 110 65 175q28 28 48 38h-144l-52 -52l-51 52h-124z" />
<glyph unicode="&#xe5;" horiz-adv-x="569" d="M-2 724q65 103 189 103q92 0 159.5 -58t67.5 -149v-828h-104v828q0 47 -39 77q-36 27 -85 27q-101 0 -126 -91z" />
<glyph unicode="&#xe6;" horiz-adv-x="800" d="M27 544q0 219 216 283q34 -50 94 -50t93 50q5 0 14 1t14 1q72 0 130.5 -57.5t58.5 -174.5v-887h-108v887q0 62 -23 86q-30 31 -74 31q-48 -42 -105 -42q-58 0 -103 42q-105 -58 -105 -170q0 -87 61 -149.5t147 -62.5q58 0 105 27v-105q-64 -27 -105 -27 q-131 0 -220.5 92.5t-89.5 224.5z" />
<glyph unicode="&#xe7;" d="M-744 1137q0 72 47 122.5t119 50.5h423q0 -37 -22.5 -61.5t-60.5 -24.5h-340q-80 0 -80 -77q0 -74 72 -74q69 0 69 71h103q0 -71 63 -71h66v-91h-68q-66 0 -95 37q-9 11 -17 37q-40 -67 -113 -74q-68 0 -117 44t-49 111z" />
<glyph unicode="&#xe8;" d="M-260 1354v206h105v-206h-105z" />
<glyph unicode="&#xe9;" d="M-414 1514v103h154v-155h312v-103h-415v155h-51z" />
<glyph unicode="&#xea;" d="M-506 1339v124q0 48 41 77q38 26 87 26q58 0 93 -53q37 53 89 53q7 1 12 1q47 0 84.5 -29t37.5 -75v-52h82v-72h-156v103q0 52 -60 52q-52 0 -75 -52q-7 -14 -14 -53q-5 36 -12 52q-23 53 -76 53q-62 0 -62 -52v-103h-71z" />
<glyph unicode="&#xeb;" d="M-414 1457v103h154v104h105v-104h155v-103h-155v-103h-105v103h-154z" />
<glyph unicode="&#xec;" d="M-414 1350v104q0 30 25 41q4 1 12 1h222v-74h-155v-72h-104z" />
<glyph unicode="&#xed;" d="M-362 1087q0 -69 42.5 -112t111.5 -43t112 43.5t43 111.5t-43.5 111.5t-111.5 43.5t-111 -43.5t-43 -111.5zM-289 1089q0 81 81 81q84 0 84 -85q0 -81 -81 -81q-84 0 -84 85z" />
<glyph unicode="&#xee;" d="M-612 1023q0 -51 112 -76q76 -17 152 -17q122 0 215 45q40 19 37 26l-57 43q9 -3 9 -10q0 -22 -124 -40q-41 -6 -77 -6q-99 0 -99 32q0 10 9 20q25 29 57 35q70 8 211 21q61 3 64 5l-14 49q-23 4 -66 11q-69 11 -77 25q-2 8 -2 12q0 49 180 49h35q19 0 163 -16l46 -2 l-14 71q-35 4 -76 8q-93 8 -141 8q-109 0 -219 -17q-175 -29 -175 -88q-5 -25 57 -53q51 -23 58 -23q-35 -2 -95 -10q-121 -16 -157 -69q-12 -17 -12 -33z" />
<glyph unicode="&#xef;" horiz-adv-x="856" d="M30 431q0 194 163 288q79 45 170 45q193 0 289 -165q46 -80 46 -169q0 -193 -163 -288q-80 -47 -169 -47q-192 0 -289 167q-47 79 -47 169zM139 434q0 -71 41.5 -131t108.5 -84q38 -14 80 -14q103 0 171 78q55 63 55 151q0 104 -78 171q-65 56 -152 56q-105 0 -171 -77 q-55 -64 -55 -150zM261 433q0 47 33 79.5t80 32.5q46 0 79 -33.5t33 -79.5q0 -48 -32.5 -80t-80.5 -32q-49 0 -80.5 32.5t-31.5 80.5z" />
<glyph unicode="&#xf0;" horiz-adv-x="838" d="M0 341q0 143 99.5 242.5t241.5 99.5q143 0 242.5 -99.5t99.5 -242.5t-100 -243t-242 -100t-241.5 100.5t-99.5 242.5zM106 344q0 -99 68 -168.5t167 -69.5t168 69.5t69 168.5t-69 166.5t-168 67.5q-98 0 -166.5 -68t-68.5 -166z" />
<glyph unicode="&#xf1;" horiz-adv-x="910" d="M0 0q0 44 29.5 73.5t73.5 29.5h260q118 0 198 57q91 64 91 177q0 111 -62.5 171.5t-173.5 60.5q-97 0 -158 -40q-72 -48 -72 -140q0 -35 30.5 -69.5t64.5 -34.5v-103q-74 0 -136 66t-62 141q0 130 103 210q94 73 228 73q152 0 246.5 -92t94.5 -243q0 -165 -117 -255 q-105 -82 -275 -82h-363z" />
<glyph unicode="&#xf2;" horiz-adv-x="932" d="M0 208v619q45 0 74 -28.5t29 -74.5v-516q0 -45 33 -72q26 -33 72 -33h361q42 0 74 33q29 24 29 72v257q0 24 -14 37q-9 15 -27 15q-65 -52 -139 -52q-84 0 -148 51q-12 -10 -19 -14q-15 -15 -15 -37v-205h-102v205q0 63 44 109t111 46q59 -51 129 -51q74 0 128 51 q65 0 111 -45t46 -110v-257q0 -83 -60 -145.5t-148 -62.5h-361q-89 0 -148.5 62.5t-59.5 145.5z" />
<glyph unicode="&#xf3;" horiz-adv-x="982" d="M0 208v181q0 102 66 166.5t168 64.5q108 0 180 -103q74 103 183 103q97 0 163.5 -67t66.5 -164v-286q0 -43 -27.5 -70.5t-82.5 -27.5v390q0 122 -120 122q-132 0 -132 -128v-389h-102v389q0 128 -129 128q-131 0 -131 -128v-181q0 -42 40 -76q13 -11 40 -21q3 -1 25 -8 v-103q-73 7 -134 62q-74 67 -74 146z" />
<glyph unicode="&#xf4;" horiz-adv-x="932" d="M0 310q0 125 75 215q80 95 202 95h292q45 0 85.5 32t40.5 131q0 30 -2 44l84 -81v-14q0 -75 -20 -114q-52 -101 -188 -101h-292q-79 0 -128 -66q-46 -60 -46 -141q0 -72 49 -137q53 -70 123 -70h205q-25 17 -39 29q-41 34 -54 62q-16 34 -16 104v10v2h105q1 -26 3 -39 q7 -44 25 -66q43 -53 69 -69q54 -33 151 -33h53v-103h-502q-120 0 -200 96q-75 91 -75 214z" />
<glyph unicode="&#xf5;" horiz-adv-x="932" d="M0 310q0 125 75 215q80 95 202 95h33q-5 18 -5 32q0 55 51 93q46 36 103 36q58 0 105 -38q50 -41 50 -98q0 -13 -3 -25h9q71 0 110 54q23 32 23 124v17q0 7 -1 12l75 -75v-9q0 -6 1 -14q0 -66 -26 -109q-28 -47 -61 -70q-47 -33 -121 -33h-343q-79 0 -128 -66 q-46 -60 -46 -141q0 -72 49 -137q53 -70 123 -70h205q-25 17 -39 29q-41 34 -54 62q-16 34 -16 104v10v2h105q1 -26 3 -39q7 -44 25 -66q43 -53 69 -69q54 -33 151 -33h53v-103h-502q-120 0 -200 96q-75 91 -75 214zM391 638q8 -43 72 -43q55 0 63 39q6 28 -16 48.5 t-51 20.5q-28 0 -50.5 -19t-17.5 -46z" />
<glyph unicode="&#xf6;" horiz-adv-x="896" d="M0 786v105q104 0 162 -67q46 -53 46 -162v-67q86 67 192 67q142 0 241.5 -99.5t99.5 -241.5t-99.5 -241.5t-241.5 -99.5q-187 0 -264 168l86 55q50 -120 178 -120q97 0 164 70.5t67 167.5q0 94 -68.5 166t-162.5 72q-71 0 -129.5 -42.5t-74.5 -110.5h-82v281q0 42 -21 68 q-28 34 -68 34q-13 0 -25 -3z" />
<glyph unicode="&#xf7;" horiz-adv-x="982" d="M0 208v206q0 87 59.5 146.5t148.5 59.5q0 -34 36 -55q30 -17 66 -17q34 0 66 19q38 21 38 53q89 0 147.5 -59t58.5 -147v-259q0 -20 16 -36t36 -16q52 0 52 52v672l103 -103v-569q0 -64 -45.5 -109.5t-109.5 -45.5t-109.5 45.5t-45.5 109.5v259q0 42 -29 74q-8 7 -17 13 q-4 3 -19 11q-53 -67 -142 -67q-84 0 -140 67q-23 -9 -34 -24q-33 -33 -33 -74v-206q0 -45 33 -72q26 -33 72 -33v-103q-89 0 -148.5 62.5t-59.5 145.5z" />
<glyph unicode="&#xf8;" horiz-adv-x="932" d="M0 208v102q0 127 89 218.5t221 91.5h259q47 0 74 32q41 49 41 127q0 35 -5 48l98 -103q-2 -13 -7 -34q-20 -78 -53 -112q-58 -61 -148 -61h-259q-87 0 -145 -59q-62 -62 -62 -148v-102q0 -38 20 -69q23 -36 59 -36q51 0 71 76q6 23 10 77h141q16 -52 29 -76 q41 -77 95 -77q78 0 115 63q18 31 29 94h107q-7 -34 -13 -67q-57 -193 -238 -193q-103 0 -157 77q-18 26 -34 78q-16 -52 -31 -77q-47 -78 -124 -78t-131 67q-51 63 -51 141z" />
<glyph unicode="&#xf9;" horiz-adv-x="932" d="M0 310q0 121 68 211q75 99 192 99q118 0 185 -106q31 83 116 106q11 3 22 3q8 0 24.5 -2.5t24.5 -2.5q16 0 28 8q38 20 38 107q0 39 -6 77q-1 7 -4 17l91 -50v-32v-16q1 -11 1 -16q1 -65 -12 -105q-17 -53 -65 -76q-17 -8 -36 -8q-10 0 -29 2.5t-28 2.5q-20 0 -35 -10 q-67 -46 -67 -92q0 -15 8 -30l208 -397h-104l-238 414q-59 103 -143 103q-70 0 -107 -72q-29 -57 -29 -135q0 -87 60 -147t147 -60v-103q-128 0 -219 91t-91 219z" />
<glyph unicode="&#xfa;" horiz-adv-x="1006" d="M31 672q0 105 81 155l72 -74q-48 -24 -48 -81q0 -75 68 -118q58 -37 137 -37q87 0 147 60t60 147v103h104v-827h-104v506q-106 -92 -207 -92q-122 0 -211 67q-99 73 -99 191zM744 825l107 2v-832h-105z" />
<glyph unicode="&#xfb;" horiz-adv-x="2065" d="M7 354q0 290 325 334q30 4 53 4q65 0 135 -25q25 -9 56 -25l-1 -126q-82 50 -188 50h-36q-17 -3 -25 -4q-91 0 -158 -58t-67 -148q0 -101 91 -152q74 -42 183 -42q119 0 205 74q56 48 103 138q40 75 47 75t66 -100t78 -102q15 0 63.5 102.5t64.5 102.5q21 0 121 -205 q3 0 60 101t73 101q14 0 67.5 -115.5t93.5 -108.5q10 2 107 129q45 60 101 66q9 1 18 1q32 0 89.5 -32.5t87.5 -32.5q13 0 27 3q28 10 44 22q11 8 28 30l62 -105q-33 -49 -114 -81q-15 -3 -29 -3q-28 0 -115 41q-42 20 -75 20h-11q-8 -2 -12 -2q-42 0 -111.5 -62t-125.5 -62 q-35 0 -72 45q-56 68 -56 83q-36 -43 -51 -59q-57 -62 -83 -69q-25 -7 -124 132q-39 -45 -59 -66q-62 -65 -76 -61q-27 7 -61 49l-44 56q-53 -84 -61 -96q-38 -52 -78 -82q-93 -69 -228 -69q-126 0 -231 55q-124 65 -146 178q-11 55 -11 101z" />
<glyph unicode="&#xfc;" d="M-363 -304h208v-218h-105v115h-103v103z" />
<glyph unicode="&#xfd;" d="M-590 -304h102q0 -43 28 -73t71 -30q42 0 70.5 30.5t28.5 72.5h104q0 -87 -59 -147.5t-146 -60.5q-84 0 -141.5 62t-57.5 146z" />
<glyph unicode="&#xfe;" d="M-312 -392q0 67 69 67t69 -67t-69 -67t-69 67z" />
<glyph unicode="&#xff;" horiz-adv-x="455" />
<glyph unicode="&#x152;" horiz-adv-x="777" d="M0 539q0 124 94 208q90 80 216 80q49 0 104 -17l31 -13q17 -7 31 -16q7 -7 17 -7q8 0 13 5q11 3 11 19v134h103v-932h-103v363h-207v102h207v52q0 86 -60.5 146.5t-146.5 60.5q-89 0 -148 -64t-59 -154z" />
<glyph unicode="&#x153;" d="M-389 1354v103q0 22 12 30q9 11 26 11h222v-72h-156v-72h-104z" />
<glyph unicode="&#x160;" d="M-414 1087v103h154v104h105v-104h155v-103h-155v-105h-105v105h-154z" />
<glyph unicode="&#x161;" d="M-444 1349v125q0 104 108 104q69 0 114 -54q40 52 88 52q8 1 12 1q49 0 86.5 -29t37.5 -77v-50h82v-72h-154v103q0 21 -20 36t-42 15q-52 0 -76 -52q-8 -17 -14 -52q-4 35 -11 52q-22 52 -75 52q-63 0 -63 -51v-103h-73z" />
<glyph unicode="&#x178;" horiz-adv-x="1023" d="M0 0v517q0 310 260 310q257 0 257 -310v-268q0 -56 34 -99q37 -47 91 -47q55 0 91 47q33 43 33 99v578h103v-578q0 -95 -65 -170q-68 -79 -162 -79q-98 0 -163 75t-65 174v268q0 207 -154 207q-157 0 -157 -207v-517h-103z" />
<glyph unicode="&#x192;" d="M-465 1294v103h155v-155h258v-105h-362v157h-51z" />
<glyph unicode="&#x2c6;" d="M-620 1137v105h155v-155h310v-105h-414v155h-51z" />
<glyph unicode="&#x2dc;" d="M-260 1355v234h105v-234h-105z" />
<glyph unicode="&#xe00;" horiz-adv-x="211" />
<glyph unicode="&#xe01;" horiz-adv-x="777" d="M0 0v517q0 126 92 218t218 92t218 -92t92 -218v-517h-103v517q0 84 -61.5 145.5t-145.5 61.5q-83 0 -145 -62t-62 -145v-517h-103z" />
<glyph unicode="&#xe02;" horiz-adv-x="724" d="M0 285v202q0 7 4 19q5 8 12 13l85 93q13 23 13 33v182h104v-222q0 -14 -5 -19q-2 -9 -10 -15l-82 -93q-10 -6 -13 -15q-5 -4 -5 -18v-160q0 -76 53 -129t129 -53q78 0 129 52t51 130v542h104v-542q0 -137 -74 -211t-210 -74q-131 0 -208 77t-77 208z" />
<glyph unicode="&#xe03;" horiz-adv-x="620" d="M0 227v279l76 105v61q0 13 -9 31q-13 22 -52 22q-10 -1 -15 -1v103q23 -32 54 -32q45 0 74 10q31 14 54 22v-256l-79 -106v-238q0 -48 41.5 -86t89.5 -38q43 0 86 40.5t43 83.5v600h102v-600q0 -72 -68 -146q-74 -81 -163 -81q-94 0 -164 66.5t-70 160.5z" />
<glyph unicode="&#xe04;" horiz-adv-x="777" d="M0 0v517q0 131 89.5 220.5t220.5 89.5q130 0 220 -90t90 -220v-517h-103v517q0 90 -58.5 148.5t-148.5 58.5q-88 0 -147.5 -59.5t-59.5 -147.5v-52h207v-102h-207v-363h-103z" />
<glyph unicode="&#xe05;" horiz-adv-x="777" d="M0 0v530q0 82 43 158q57 101 175 139q32 -48 94 -48q59 0 92 48q108 -34 172 -141q44 -74 44 -156v-530h-103v530q0 55 -29 103q-22 46 -74 79q-51 -40 -104 -40q-56 0 -102 40q-53 -37 -76 -79q-29 -54 -29 -103v-65h207v-102h-207v-363h-103z" />
<glyph unicode="&#xe06;" horiz-adv-x="827" d="M0 0v465h52v207q0 39 -30 48q-9 2 -22 4v103q38 -25 79 -25q37 0 76 25v-517q0 -82 63 -144.5t145 -62.5t140.5 62.5t58.5 144.5v517h110v-517q0 -129 -90 -219.5t-219 -90.5q-175 0 -249 132l-31 -132h-83z" />
<glyph unicode="&#xe07;" horiz-adv-x="708" d="M4 224l82 86q10 -77 60 -139q56 -69 129 -69q12 0 19 1q155 21 155 207v414h-208v103h313v-517q0 -124 -66 -213q-74 -97 -194 -97q-109 0 -188 58q-82 61 -102 166z" />
<glyph unicode="&#xe08;" horiz-adv-x="777" d="M0 539q0 124 94 208q90 80 216 80q130 0 220 -90t90 -220v-517h-103v363h-207v102h207v52q0 86 -60.5 146.5t-146.5 60.5q-89 0 -148 -64t-59 -154z" />
<glyph unicode="&#xe09;" horiz-adv-x="777" d="M0 310v238h103v-238q0 -207 182 -207q180 0 180 207v310q0 22 -9 41q-14 23 -20 35q-6 8 -37 20q-21 8 -36 8h-363l41 103h322q85 0 148 -60q58 -57 58 -147v-155h51v-465h-81l-30 132q-96 -132 -224 -132q-136 0 -213 88q-72 83 -72 222z" />
<glyph unicode="&#xe0a;" horiz-adv-x="724" d="M0 285v202q0 7 4 19q5 8 12 13l85 93q13 23 13 33v182h104v-222q0 -14 -5 -19q-2 -9 -10 -15l-82 -93q-10 -6 -13 -15q-5 -4 -5 -18v-160q0 -76 53 -129t129 -53q78 0 129 52t51 130v202q0 35 -24.5 59t-59.5 24q-11 0 -18 -1v103q10 -1 14 -1q37 0 65 29q23 24 23 55 v126h104v-126q0 -77 -36 -114q-12 -12 -36 -21q34 -19 48 -40q24 -36 24 -86v-209q0 -137 -74 -211t-210 -74q-131 0 -208 77t-77 208z" />
<glyph unicode="&#xe0b;" horiz-adv-x="724" d="M0 285v202q0 18 14 34l78 91q14 16 14 33v65q0 24 -9 24q-6 0 -23 -10q-26 -15 -54 -15q-20 0 -20 15v125q7 -14 13 -20q21 -21 56 -21q18 0 44 14q61 32 68 32q28 0 28 -63v-187q0 -13 -15 -35l-77 -89q-14 -25 -14 -35v-160q0 -76 53 -129t129 -53q78 0 129 52t51 130 v202q0 37 -23.5 59.5t-78.5 22.5v103q59 0 82 24q20 26 20 59v126h104v-126q0 -77 -36 -114q-12 -12 -36 -21q34 -19 48 -40q24 -36 24 -86v-209q0 -137 -74 -211t-210 -74q-131 0 -208 77t-77 208z" />
<glyph unicode="&#xe0c;" horiz-adv-x="1023" d="M0 0v539q0 122 68 202q73 86 192 86t190 -86q67 -81 67 -202v-336q0 -40 43 -71q40 -29 82 -29q41 0 82.5 30t41.5 70v624h103v-619q0 -85 -70.5 -146.5t-156.5 -61.5q-51 0 -99 29t-69 74l-29 -103h-82v414h51v125q0 77 -37 128q-42 57 -117 57q-76 0 -119 -56 q-38 -51 -38 -129v-539h-103z" />
<glyph unicode="&#xe0d;" horiz-adv-x="1023" d="M0 0v539q0 119 70 201q74 87 190 87q115 0 188 -88q69 -83 69 -200v-336q0 -47 40 -75q36 -25 85 -25t84 25q40 28 40 75v624h103v-829q0 -88 -67.5 -147t-156.5 -59q-84 0 -140 36q-17 11 -40 36v105q31 -25 62 -51q37 -21 118 -21q40 0 80.5 31t40.5 70v52 q-45 -50 -124 -50q-86 0 -155 58q-73 61 -73 145v336q0 74 -39 127q-44 58 -115 58q-73 0 -117 -57q-40 -53 -40 -128v-539h-103z" />
<glyph unicode="&#xe0e;" horiz-adv-x="777" d="M0 0v539q0 124 94 208q90 80 216 80t216 -80q94 -84 94 -208v-611q0 -80 -53 -134t-137 -54h-389l42 105h352q36 0 59 23t23 60v611q0 82 -64 135q-60 50 -143 50t-143 -50q-64 -54 -64 -135v-539h-103z" />
<glyph unicode="&#xe0f;" horiz-adv-x="777" d="M0 0v539q0 124 94 208q90 80 216 80t216 -80q94 -84 94 -208v-591q0 -85 -52 -145q-55 -63 -138 -63q-49 0 -83 20q-17 10 -37 32q-10 -12 -36 -35q-27 -17 -49 -17h-184l42 105h99q35 0 58 15q28 20 28 61h83q0 -31 26.5 -53.5t57.5 -22.5q82 0 82 103v591q0 82 -64 135 q-60 50 -143 50t-143 -50q-64 -54 -64 -135v-539h-103z" />
<glyph unicode="&#xe10;" horiz-adv-x="777" d="M0 539q0 124 94 208q90 80 216 80q49 0 104 -17l31 -13q17 -7 30 -16t26 -20q9 -8 15 -6q3 2 3 11q-2 19 -2 25v141h103v-932h-103v363h-207v102h207v52q0 86 -60.5 146.5t-146.5 60.5q-89 0 -148 -64t-59 -154zM41 -260l42 105h99q31 0 58.5 17t27.5 55h83 q0 -32 25.5 -52t58.5 -20q82 0 82 72v11h103v-11q0 -80 -54.5 -128.5t-135.5 -48.5q-80 0 -120 52q-11 -14 -16 -20q-27 -32 -69 -32h-184z" />
<glyph unicode="&#xe11;" horiz-adv-x="827" d="M-27 703v124q26 -36 45 -36q46 0 80 11q20 6 57 25v-124q72 124 208 124t222.5 -87t86.5 -223v-517h-110v517q0 95 -52.5 151t-146.5 56q-84 0 -146 -61.5t-62 -145.5v-517h-103v672q0 27 -12 42q-19 16 -33 16q-18 0 -34 -27z" />
<glyph unicode="&#xe12;" horiz-adv-x="1023" d="M0 0v548q0 75 40 148q54 99 168 133q19 -52 77 -52q56 0 78 50q111 -31 169 -134q37 -66 37 -145v-345q0 -41 29.5 -70.5t70.5 -29.5q40 0 68.5 30t28.5 70v624h103v-619q0 -86 -57 -147t-143 -61q-94 0 -146 101l-26 -101h-83v414h51v134q0 53 -21 94q-17 33 -67 70 q-41 -40 -92 -40q-50 0 -94 38q-42 -28 -63 -68q-25 -47 -25 -94v-548h-103z" />
<glyph unicode="&#xe13;" horiz-adv-x="1023" d="M0 0v517q0 135 61 218q69 92 199 92q129 0 197 -93q60 -82 60 -217v-314q0 -41 29 -70.5t70 -29.5t69.5 29.5t28.5 70.5v624h104v-362h51v-465h-83l-27 103q-40 -90 -143 -103q-8 -1 -19 -1q-75 0 -129.5 55.5t-54.5 130.5q0 12 1 18v314q0 84 -34 140q-41 67 -120 67 q-81 0 -122 -66q-35 -55 -35 -141v-517h-103z" />
<glyph unicode="&#xe14;" horiz-adv-x="777" d="M0 0v517q0 129 90.5 219.5t219.5 90.5q130 0 220 -90t90 -220v-517h-103v517q0 87 -60.5 147t-148.5 60q-86 0 -145.5 -60t-59.5 -147v-414h207v-103h-310z" />
<glyph unicode="&#xe15;" horiz-adv-x="777" d="M0 0v517q0 94 43 171q56 101 175 139q32 -48 94 -48q59 0 92 48q109 -34 172 -141q44 -74 44 -169v-517h-103v517q0 68 -29 116q-22 46 -74 79q-51 -40 -104 -40q-56 0 -102 40q-53 -37 -76 -79q-29 -54 -29 -116v-414h207v-103h-310z" />
<glyph unicode="&#xe16;" horiz-adv-x="777" d="M0 0v348q0 41 31.5 79t71.5 38h-103v6q0 356 310 356q126 0 216 -78q94 -81 94 -205v-544h-103v539q0 82 -64 135q-60 50 -143 50q-88 0 -144 -48q-60 -50 -60 -137h154v-74q-157 0 -157 -155v-207h207v-103h-310z" />
<glyph unicode="&#xe17;" horiz-adv-x="777" d="M0 0v827h103v-124q55 124 207 124q126 0 218 -92t92 -218v-517h-103v517q0 84 -61.5 145.5t-145.5 61.5q-83 0 -145 -62t-62 -145v-517h-103z" />
<glyph unicode="&#xe18;" horiz-adv-x="777" d="M0 683q0 75 70 113q57 31 138 31h412l-70 -103h-380q-67 0 -67 -36q0 -34 61 -43l314 -48q80 -12 120 -74q22 -34 22 -84v-113q0 -142 -69 -230q-76 -96 -214 -96q-139 0 -215 95q-70 87 -70 230v167l103 -16v-150q0 -93 43 -154q50 -69 139 -69q91 0 138 69 q42 59 42 154v81q0 32 -15 49q-13 22 -69 32l-334 60q-29 5 -60 39q-39 42 -39 96z" />
<glyph unicode="&#xe19;" horiz-adv-x="777" d="M0 310v517h103v-517q0 -87 47 -145q50 -62 135 -62q86 0 135 62q45 57 45 145v517h104v-362h51v-465h-81l-27 103q-96 -103 -227 -103q-126 0 -207 93q-78 89 -78 217z" />
<glyph unicode="&#xe1a;" horiz-adv-x="777" d="M0 310v517h103v-517q0 -96 55.5 -151.5t151.5 -55.5q97 0 152 54.5t55 152.5v517h103v-517q0 -141 -84.5 -225.5t-225.5 -84.5t-225.5 84.5t-84.5 225.5z" />
<glyph unicode="&#xe1b;" horiz-adv-x="777" d="M0 310v517h103v-517q0 -96 55.5 -151.5t151.5 -55.5q97 0 152 54.5t55 152.5v699h103v-699q0 -141 -84.5 -225.5t-225.5 -84.5t-225.5 84.5t-84.5 225.5z" />
<glyph unicode="&#xe1c;" horiz-adv-x="910" d="M0 254v573h208v-103h-105v-470q0 -151 115 -151q114 0 114 151v573h103v-573q0 -151 109 -151q108 0 108 151v573h103v-573q0 -108 -48 -176q-56 -78 -159 -78q-90 0 -139 51q-16 17 -31 52q-12 -35 -27 -51q-47 -52 -138 -52q-106 0 -163 76q-50 68 -50 178z" />
<glyph unicode="&#xe1d;" horiz-adv-x="910" d="M0 254v573h208v-103h-105v-470q0 -151 115 -151q114 0 114 151v573h103v-573q0 -151 109 -151q108 0 108 151v755h103v-755q0 -108 -48 -176q-56 -78 -159 -78q-90 0 -139 51q-16 17 -31 52q-12 -35 -27 -51q-47 -52 -138 -52q-106 0 -163 76q-50 68 -50 178z" />
<glyph unicode="&#xe1e;" horiz-adv-x="899" d="M0 254v573h103v-573q0 -56 26 -100q31 -51 84 -51q108 0 108 151v573h102v-573q0 -151 110 -151q109 0 109 151v573h102v-573q0 -108 -47 -176q-55 -78 -158 -78q-92 0 -140 51q-16 17 -31 52q-11 -35 -25 -51q-44 -52 -135 -52q-208 0 -208 254z" />
<glyph unicode="&#xe1f;" horiz-adv-x="899" d="M0 254v573h103v-573q0 -56 26 -100q31 -51 84 -51q108 0 108 151v573h102v-573q0 -151 110 -151q109 0 109 151v755h102v-755q0 -108 -47 -176q-55 -78 -158 -78q-92 0 -140 51q-16 17 -31 52q-11 -35 -25 -51q-44 -52 -135 -52q-208 0 -208 254z" />
<glyph unicode="&#xe20;" horiz-adv-x="827" d="M0 0v103h52v414q0 141 85.5 225.5t225.5 84.5t224.5 -84.5t84.5 -225.5v-517h-110v517q0 91 -54.5 149t-144.5 58q-91 0 -149.5 -58t-58.5 -149v-517h-155z" />
<glyph unicode="&#xe21;" horiz-adv-x="827" d="M0 0v465h52v362h103v-517q0 -82 63 -144.5t145 -62.5t140.5 62.5t58.5 144.5v517h110v-517q0 -129 -90 -219.5t-219 -90.5q-175 0 -249 132l-31 -132h-83z" />
<glyph unicode="&#xe22;" horiz-adv-x="777" d="M0 310q0 70 46 138q15 22 47 54q-93 39 -93 150q0 76 63 129q59 50 136 50q53 0 91 -29v-102q-18 38 -86 38q-101 0 -101 -86q0 -72 76 -90q67 38 111 38v-94q-187 -32 -187 -196q0 -90 58.5 -148.5t148.5 -58.5t150 71q57 67 57 158v495h103v-495q0 -145 -81 -237 q-85 -95 -229 -95q-128 0 -219 91t-91 219z" />
<glyph unicode="&#xe23;" horiz-adv-x="614" d="M0 597q0 97 70.5 171.5t167.5 74.5q140 0 209 -143l-74 -96q-26 137 -135 137q-55 0 -95 -44.5t-40 -99.5q0 -79 124 -132q82 -35 109 -50q125 -70 125 -181q0 -97 -68.5 -165.5t-165.5 -68.5q-119 0 -194 103l46 95q52 -95 148 -95q55 0 93.5 38t38.5 93q0 74 -132 129 q-112 47 -155 82q-72 60 -72 152z" />
<glyph unicode="&#xe24;" horiz-adv-x="777" d="M0 0v517q0 126 92 218t218 92t218 -92t92 -218v-725h-103v725q0 84 -61.5 145.5t-145.5 61.5q-83 0 -145 -62t-62 -145v-517h-103z" />
<glyph unicode="&#xe25;" horiz-adv-x="777" d="M0 559q18 118 104.5 193t205.5 75q121 0 210 -62q100 -71 100 -187v-578h-103v414l-20 -14q-53 -37 -187 -37q-165 0 -193 -88q-7 -22 -7 -46q0 -70 58 -105q41 -25 91 -25q59 0 92 37v-105q-56 -31 -117 -31q-95 0 -163.5 69.5t-68.5 164.5q0 231 308 231q196 0 207 113 q1 5 1 14q0 67 -74 104q-59 28 -134 28q-89 0 -148 -68.5t-59 -158.5z" />
<glyph unicode="&#xe26;" horiz-adv-x="825" d="M0 0v103h52v414q0 141 85.5 225.5t225.5 84.5q141 0 225 -84t84 -226v-725h-110v725q0 91 -54.5 149t-144.5 58q-91 0 -149.5 -58t-58.5 -149v-517h-155z" />
<glyph unicode="&#xe27;" horiz-adv-x="777" d="M2 550q0 114 98 205q95 88 210 88q132 0 221 -96.5t89 -229.5v-207q0 -133 -88.5 -221.5t-221.5 -88.5q-192 0 -272 162l91 49q52 -108 181 -108q89 0 148 59t59 148v207q0 92 -57 156q-60 68 -150 68q-81 0 -144 -71t-63 -153z" />
<glyph unicode="&#xe28;" horiz-adv-x="777" d="M0 0v517q0 143 83.5 226.5t226.5 83.5q94 0 177 -65q31 -24 27 -25q2 6 3 13v129h103v-879h-103v517q0 86 -60.5 146.5t-146.5 60.5q-87 0 -147 -60t-60 -147v-52h207v-102h-207v-363h-103z" />
<glyph unicode="&#xe29;" horiz-adv-x="777" d="M0 310v517h103v-517q0 -89 59 -148t148 -59q90 0 148.5 58.5t58.5 148.5v155h-207v104h207v258h103v-258h52v-104h-52v-155q0 -141 -84.5 -225.5t-225.5 -84.5t-225.5 84.5t-84.5 225.5z" />
<glyph unicode="&#xe2a;" horiz-adv-x="777" d="M0 559q20 118 105.5 193t204.5 75q96 0 178 -48q19 -19 23 -19q3 0 4.5 2.5t1.5 14.5v102h103v-879h-103v435q-22 -34 -56 -48q-47 -20 -151 -23q-99 -4 -145 -27q-62 -31 -62 -98q0 -59 45 -98.5t105 -39.5q63 0 98 35v-105q-56 -31 -117 -31q-95 0 -163.5 69.5 t-68.5 164.5q0 231 308 231q196 0 207 113q1 5 1 14q0 67 -74 104q-59 28 -134 28q-89 0 -148 -68.5t-59 -158.5z" />
<glyph unicode="&#xe2b;" horiz-adv-x="777" d="M0 0v827h103v-175v-13q-1 -7 -1 -8q0 -14 8 -15q13 -2 22 11l47 31q20 8 59 27l238 142h176l-238 -139q44 -15 71 -34q8 -5 48 -43q32 -30 52 -69q35 -68 35 -150v-392h-103v392q0 86 -60.5 147t-146.5 61t-146.5 -61t-60.5 -147v-392h-103z" />
<glyph unicode="&#xe2c;" horiz-adv-x="899" d="M0 290v537h103v-537q0 -187 105 -187q113 0 113 187v434h102v-434q0 -187 105 -187q114 0 114 187v537h-228v105h228v77h102v-719q0 -112 -51 -194q-59 -96 -165 -96q-92 0 -135 64q-14 21 -25 65q-11 -43 -25 -64q-44 -65 -135 -65q-108 0 -163 96q-45 78 -45 194z" />
<glyph unicode="&#xe2d;" horiz-adv-x="777" d="M0 310v155h310v-102h-207v-53q0 -87 60 -147t147 -60t147 60t60 147v207q0 91 -58 149t-149 58q-162 0 -207 -136l-103 32q31 101 119 156q81 51 191 51q132 0 221 -89t89 -221v-207q0 -129 -90.5 -219.5t-219.5 -90.5q-128 0 -219 91t-91 219z" />
<glyph unicode="&#xe2e;" horiz-adv-x="777" d="M0 310v155h310v-102h-207v-53q0 -87 60 -147t147 -60t147 60t60 147v207q0 91 -58 149t-149 58q-154 0 -207 -136l-103 32q74 207 310 207q54 0 94 -17q28 -12 81 -48q1 -1 13 -14q9 -10 14 -9q6 0 6 11q-1 11 -1 16v113h103v-569q0 -129 -90.5 -219.5t-219.5 -90.5 q-128 0 -219 91t-91 219z" />
<glyph unicode="&#xe2f;" horiz-adv-x="808" d="M31 672q0 105 81 155l72 -74q-48 -24 -48 -81q0 -75 68 -118q58 -37 137 -37q87 0 147 60t60 147v103h104v-827h-104v506q-106 -92 -207 -92q-122 0 -211 67q-99 73 -99 191z" />
<glyph unicode="&#xe30;" horiz-adv-x="442" d="M0 207q0 68 43.5 112t111.5 44q69 0 112 -43.5t43 -112.5t-43 -112t-112 -43t-112 43.5t-43 111.5zM0 621q0 68 43.5 112t111.5 44q69 0 112 -43.5t43 -112.5t-43 -112.5t-112 -43.5t-112 43.5t-43 112.5zM82 207q0 -71 73 -71q74 0 74 71q0 72 -74 72q-73 0 -73 -72z M82 620q0 -72 73 -72q74 0 74 72q0 73 -74 73q-73 0 -73 -73z" />
<glyph unicode="&#xe31;" d="M-620 982v208h103v-103h438v-105h-541z" />
<glyph unicode="&#xe32;" horiz-adv-x="554" d="M-14 724q72 119 191 119q90 0 156.5 -66.5t66.5 -156.5v-620h-110v620q0 49 -34.5 85t-83.5 36q-89 0 -127 -108z" />
<glyph unicode="&#xe33;" horiz-adv-x="517" d="M-362 1087q0 -69 42.5 -112t111.5 -43t112 43.5t43 111.5t-43.5 111.5t-111.5 43.5t-111 -43.5t-43 -111.5zM-289 1089q0 81 81 81q84 0 84 -85q0 -81 -81 -81q-84 0 -84 85zM-2 724q62 103 189 103q92 0 156 -57q68 -60 68 -150v-620h-103v620q0 48 -39 78 q-35 26 -85 26q-96 0 -126 -91z" />
<glyph unicode="&#xe34;" d="M-724 982v105h569v-105h-569z" />
<glyph unicode="&#xe35;" d="M-724 982v105h464v103h105v-208h-569z" />
<glyph unicode="&#xe36;" d="M-724 932v103h304v41q0 54 37 92t91 38q55 0 92.5 -37.5t37.5 -92.5q0 -56 -37 -100t-91 -44h-434zM-362 1076q0 -72 72 -72t72 72t-72 72t-72 -72z" />
<glyph unicode="&#xe37;" d="M-752 982v105h332v103h83v-208h-415zM-260 982v208h105v-208h-105z" />
<glyph unicode="&#xe38;" d="M-363 -155h208v-259h-105v154h-103v105z" />
<glyph unicode="&#xe39;" d="M-562 -103h101v-52q0 -42 28 -73.5t70 -31.5q43 0 71.5 31t28.5 74v52h105v-52q0 -86 -60 -147t-146 -61q-84 0 -141 61.5t-57 146.5v52z" />
<glyph unicode="&#xe3a;" d="M-274 -170q0 67 66 67t66 -67q0 -68 -66 -68t-66 68z" />
<glyph unicode="&#xe3f;" horiz-adv-x="736" d="M47 2v636q0 106 50 182q53 83 152 107v140h99v-133q200 -31 200 -244q0 -85 -19 -128q-15 -34 -58 -68q124 -53 124 -217v-17q0 -100 -57 -176q-63 -84 -160 -84l-14 2h-16v-164h-99v164h-53v122h53v298h-53v113h53v278q-87 -37 -87 -166v-645h-115zM348 124 q65 0 102.5 39t37.5 104q0 153 -140 153v-296zM348 542q96 25 96 129q0 119 -96 147v-276z" />
<glyph unicode="&#xe40;" horiz-adv-x="285" d="M27 0v827h102v-827h-102z" />
<glyph unicode="&#xe41;" horiz-adv-x="517" d="M0 0v827h103v-827h-103zM253 0v827h110v-827h-110z" />
<glyph unicode="&#xe42;" horiz-adv-x="292" d="M31 0v1294q0 86 61 146t146 60h207l52 -103h-259q-43 0 -72.5 -28.5t-29.5 -74.5v-1294h-105z" />
<glyph unicode="&#xe43;" horiz-adv-x="292" d="M-150 1324q68 176 264 176q101 0 164 -67.5t63 -168.5q0 -119 -68 -179q-86 -51 -116 -77q-21 -18 -21 -76v-932h-105v982q0 64 31 83q21 13 123 74q53 40 53 125q0 109 -124 133q-15 3 -28 3q-59 0 -105 -45q-41 -42 -53 -103z" />
<glyph unicode="&#xe44;" horiz-adv-x="292" d="M-227 1397l50 103h98l53 -51l53 51h109q92 0 102 -4q27 -12 27 -84q0 -18 -64.5 -88t-64.5 -138v-1186h-105v1184q0 110 65 175q28 28 48 38h-144l-52 -52l-51 52h-124z" />
<glyph unicode="&#xe45;" horiz-adv-x="569" d="M-2 724q65 103 189 103q92 0 159.5 -58t67.5 -149v-828h-104v828q0 47 -39 77q-36 27 -85 27q-101 0 -126 -91z" />
<glyph unicode="&#xe46;" horiz-adv-x="800" d="M27 544q0 219 216 283q34 -50 94 -50t93 50q5 0 14 1t14 1q72 0 130.5 -57.5t58.5 -174.5v-887h-108v887q0 62 -23 86q-30 31 -74 31q-48 -42 -105 -42q-58 0 -103 42q-105 -58 -105 -170q0 -87 61 -149.5t147 -62.5q58 0 105 27v-105q-64 -27 -105 -27 q-131 0 -220.5 92.5t-89.5 224.5z" />
<glyph unicode="&#xe47;" d="M-744 1137q0 72 47 122.5t119 50.5h423q0 -37 -22.5 -61.5t-60.5 -24.5h-340q-80 0 -80 -77q0 -74 72 -74q69 0 69 71h103q0 -71 63 -71h66v-91h-68q-66 0 -95 37q-9 11 -17 37q-40 -67 -113 -74q-68 0 -117 44t-49 111z" />
<glyph unicode="&#xe48;" d="M-260 1354v206h105v-206h-105z" />
<glyph unicode="&#xe49;" d="M-414 1514v103h154v-155h312v-103h-415v155h-51z" />
<glyph unicode="&#xe4a;" d="M-506 1339v124q0 48 41 77q38 26 87 26q58 0 93 -53q37 53 89 53q7 1 12 1q47 0 84.5 -29t37.5 -75v-52h82v-72h-156v103q0 52 -60 52q-52 0 -75 -52q-7 -14 -14 -53q-5 36 -12 52q-23 53 -76 53q-62 0 -62 -52v-103h-71z" />
<glyph unicode="&#xe4b;" d="M-414 1457v103h154v104h105v-104h155v-103h-155v-103h-105v103h-154z" />
<glyph unicode="&#xe4c;" d="M-414 1350v104q0 30 25 41q4 1 12 1h222v-74h-155v-72h-104z" />
<glyph unicode="&#xe4d;" d="M-362 1087q0 -69 42.5 -112t111.5 -43t112 43.5t43 111.5t-43.5 111.5t-111.5 43.5t-111 -43.5t-43 -111.5zM-289 1089q0 81 81 81q84 0 84 -85q0 -81 -81 -81q-84 0 -84 85z" />
<glyph unicode="&#xe4e;" d="M-612 1023q0 -51 112 -76q76 -17 152 -17q122 0 215 45q40 19 37 26l-57 43q9 -3 9 -10q0 -22 -124 -40q-41 -6 -77 -6q-99 0 -99 32q0 10 9 20q25 29 57 35q70 8 211 21q61 3 64 5l-14 49q-23 4 -66 11q-69 11 -77 25q-2 8 -2 12q0 49 180 49h35q19 0 163 -16l46 -2 l-14 71q-35 4 -76 8q-93 8 -141 8q-109 0 -219 -17q-175 -29 -175 -88q-5 -25 57 -53q51 -23 58 -23q-35 -2 -95 -10q-121 -16 -157 -69q-12 -17 -12 -33z" />
<glyph unicode="&#xe4f;" horiz-adv-x="856" d="M30 431q0 194 163 288q79 45 170 45q193 0 289 -165q46 -80 46 -169q0 -193 -163 -288q-80 -47 -169 -47q-192 0 -289 167q-47 79 -47 169zM139 434q0 -71 41.5 -131t108.5 -84q38 -14 80 -14q103 0 171 78q55 63 55 151q0 104 -78 171q-65 56 -152 56q-105 0 -171 -77 q-55 -64 -55 -150zM261 433q0 47 33 79.5t80 32.5q46 0 79 -33.5t33 -79.5q0 -48 -32.5 -80t-80.5 -32q-49 0 -80.5 32.5t-31.5 80.5z" />
<glyph unicode="&#xe50;" horiz-adv-x="838" d="M0 341q0 143 99.5 242.5t241.5 99.5q143 0 242.5 -99.5t99.5 -242.5t-100 -243t-242 -100t-241.5 100.5t-99.5 242.5zM106 344q0 -99 68 -168.5t167 -69.5t168 69.5t69 168.5t-69 166.5t-168 67.5q-98 0 -166.5 -68t-68.5 -166z" />
<glyph unicode="&#xe51;" horiz-adv-x="910" d="M0 0q0 44 29.5 73.5t73.5 29.5h260q118 0 198 57q91 64 91 177q0 111 -62.5 171.5t-173.5 60.5q-97 0 -158 -40q-72 -48 -72 -140q0 -35 30.5 -69.5t64.5 -34.5v-103q-74 0 -136 66t-62 141q0 130 103 210q94 73 228 73q152 0 246.5 -92t94.5 -243q0 -165 -117 -255 q-105 -82 -275 -82h-363z" />
<glyph unicode="&#xe52;" horiz-adv-x="932" d="M0 208v619q45 0 74 -28.5t29 -74.5v-516q0 -45 33 -72q26 -33 72 -33h361q42 0 74 33q29 24 29 72v257q0 24 -14 37q-9 15 -27 15q-65 -52 -139 -52q-84 0 -148 51q-12 -10 -19 -14q-15 -15 -15 -37v-205h-102v205q0 63 44 109t111 46q59 -51 129 -51q74 0 128 51 q65 0 111 -45t46 -110v-257q0 -83 -60 -145.5t-148 -62.5h-361q-89 0 -148.5 62.5t-59.5 145.5z" />
<glyph unicode="&#xe53;" horiz-adv-x="982" d="M0 208v181q0 102 66 166.5t168 64.5q108 0 180 -103q74 103 183 103q97 0 163.5 -67t66.5 -164v-286q0 -43 -27.5 -70.5t-82.5 -27.5v390q0 122 -120 122q-132 0 -132 -128v-389h-102v389q0 128 -129 128q-131 0 -131 -128v-181q0 -42 40 -76q13 -11 40 -21q3 -1 25 -8 v-103q-73 7 -134 62q-74 67 -74 146z" />
<glyph unicode="&#xe54;" horiz-adv-x="932" d="M0 310q0 125 75 215q80 95 202 95h292q45 0 85.5 32t40.5 131q0 30 -2 44l84 -81v-14q0 -75 -20 -114q-52 -101 -188 -101h-292q-79 0 -128 -66q-46 -60 -46 -141q0 -72 49 -137q53 -70 123 -70h205q-25 17 -39 29q-41 34 -54 62q-16 34 -16 104v10v2h105q1 -26 3 -39 q7 -44 25 -66q43 -53 69 -69q54 -33 151 -33h53v-103h-502q-120 0 -200 96q-75 91 -75 214z" />
<glyph unicode="&#xe55;" horiz-adv-x="932" d="M0 310q0 125 75 215q80 95 202 95h33q-5 18 -5 32q0 55 51 93q46 36 103 36q58 0 105 -38q50 -41 50 -98q0 -13 -3 -25h9q71 0 110 54q23 32 23 124v17q0 7 -1 12l75 -75v-9q0 -6 1 -14q0 -66 -26 -109q-28 -47 -61 -70q-47 -33 -121 -33h-343q-79 0 -128 -66 q-46 -60 -46 -141q0 -72 49 -137q53 -70 123 -70h205q-25 17 -39 29q-41 34 -54 62q-16 34 -16 104v10v2h105q1 -26 3 -39q7 -44 25 -66q43 -53 69 -69q54 -33 151 -33h53v-103h-502q-120 0 -200 96q-75 91 -75 214zM391 638q8 -43 72 -43q55 0 63 39q6 28 -16 48.5 t-51 20.5q-28 0 -50.5 -19t-17.5 -46z" />
<glyph unicode="&#xe56;" horiz-adv-x="896" d="M0 786v105q104 0 162 -67q46 -53 46 -162v-67q86 67 192 67q142 0 241.5 -99.5t99.5 -241.5t-99.5 -241.5t-241.5 -99.5q-187 0 -264 168l86 55q50 -120 178 -120q97 0 164 70.5t67 167.5q0 94 -68.5 166t-162.5 72q-71 0 -129.5 -42.5t-74.5 -110.5h-82v281q0 42 -21 68 q-28 34 -68 34q-13 0 -25 -3z" />
<glyph unicode="&#xe57;" horiz-adv-x="982" d="M0 208v206q0 87 59.5 146.5t148.5 59.5q0 -34 36 -55q30 -17 66 -17q34 0 66 19q38 21 38 53q89 0 147.5 -59t58.5 -147v-259q0 -20 16 -36t36 -16q52 0 52 52v672l103 -103v-569q0 -64 -45.5 -109.5t-109.5 -45.5t-109.5 45.5t-45.5 109.5v259q0 42 -29 74q-8 7 -17 13 q-4 3 -19 11q-53 -67 -142 -67q-84 0 -140 67q-23 -9 -34 -24q-33 -33 -33 -74v-206q0 -45 33 -72q26 -33 72 -33v-103q-89 0 -148.5 62.5t-59.5 145.5z" />
<glyph unicode="&#xe58;" horiz-adv-x="932" d="M0 208v102q0 127 89 218.5t221 91.5h259q47 0 74 32q41 49 41 127q0 35 -5 48l98 -103q-2 -13 -7 -34q-20 -78 -53 -112q-58 -61 -148 -61h-259q-87 0 -145 -59q-62 -62 -62 -148v-102q0 -38 20 -69q23 -36 59 -36q51 0 71 76q6 23 10 77h141q16 -52 29 -76 q41 -77 95 -77q78 0 115 63q18 31 29 94h107q-7 -34 -13 -67q-57 -193 -238 -193q-103 0 -157 77q-18 26 -34 78q-16 -52 -31 -77q-47 -78 -124 -78t-131 67q-51 63 -51 141z" />
<glyph unicode="&#xe59;" horiz-adv-x="932" d="M0 310q0 121 68 211q75 99 192 99q118 0 185 -106q31 83 116 106q11 3 22 3q8 0 24.5 -2.5t24.5 -2.5q16 0 28 8q38 20 38 107q0 39 -6 77q-1 7 -4 17l91 -50v-32v-16q1 -11 1 -16q1 -65 -12 -105q-17 -53 -65 -76q-17 -8 -36 -8q-10 0 -29 2.5t-28 2.5q-20 0 -35 -10 q-67 -46 -67 -92q0 -15 8 -30l208 -397h-104l-238 414q-59 103 -143 103q-70 0 -107 -72q-29 -57 -29 -135q0 -87 60 -147t147 -60v-103q-128 0 -219 91t-91 219z" />
<glyph unicode="&#xe5a;" horiz-adv-x="1006" d="M31 672q0 105 81 155l72 -74q-48 -24 -48 -81q0 -75 68 -118q58 -37 137 -37q87 0 147 60t60 147v103h104v-827h-104v506q-106 -92 -207 -92q-122 0 -211 67q-99 73 -99 191zM744 825l107 2v-832h-105z" />
<glyph unicode="&#xe5b;" horiz-adv-x="2065" d="M7 354q0 290 325 334q30 4 53 4q65 0 135 -25q25 -9 56 -25l-1 -126q-82 50 -188 50h-36q-17 -3 -25 -4q-91 0 -158 -58t-67 -148q0 -101 91 -152q74 -42 183 -42q119 0 205 74q56 48 103 138q40 75 47 75t66 -100t78 -102q15 0 63.5 102.5t64.5 102.5q21 0 121 -205 q3 0 60 101t73 101q14 0 67.5 -115.5t93.5 -108.5q10 2 107 129q45 60 101 66q9 1 18 1q32 0 89.5 -32.5t87.5 -32.5q13 0 27 3q28 10 44 22q11 8 28 30l62 -105q-33 -49 -114 -81q-15 -3 -29 -3q-28 0 -115 41q-42 20 -75 20h-11q-8 -2 -12 -2q-42 0 -111.5 -62t-125.5 -62 q-35 0 -72 45q-56 68 -56 83q-36 -43 -51 -59q-57 -62 -83 -69q-25 -7 -124 132q-39 -45 -59 -66q-62 -65 -76 -61q-27 7 -61 49l-44 56q-53 -84 -61 -96q-38 -52 -78 -82q-93 -69 -228 -69q-126 0 -231 55q-124 65 -146 178q-11 55 -11 101z" />
<glyph unicode="&#x2000;" horiz-adv-x="850" />
<glyph unicode="&#x2001;" horiz-adv-x="1700" />
<glyph unicode="&#x2002;" horiz-adv-x="850" />
<glyph unicode="&#x2003;" horiz-adv-x="1700" />
<glyph unicode="&#x2004;" horiz-adv-x="566" />
<glyph unicode="&#x2005;" horiz-adv-x="425" />
<glyph unicode="&#x2006;" horiz-adv-x="283" />
<glyph unicode="&#x2007;" horiz-adv-x="283" />
<glyph unicode="&#x2008;" horiz-adv-x="212" />
<glyph unicode="&#x2009;" horiz-adv-x="340" />
<glyph unicode="&#x200a;" horiz-adv-x="94" />
<glyph unicode="&#x2010;" horiz-adv-x="610" d="M30 345v103h477v-103h-477z" />
<glyph unicode="&#x2011;" horiz-adv-x="610" d="M30 345v103h477v-103h-477z" />
<glyph unicode="&#x2012;" horiz-adv-x="610" d="M30 345v103h477v-103h-477z" />
<glyph unicode="&#x2013;" d="M-572 1087q0 68 43 111.5t111 43.5q69 0 112 -43.5t43 -111.5t-43 -111.5t-112 -43.5q-68 0 -111 43.5t-43 111.5zM-500 1088q0 -84 84 -84q82 0 82 82q0 84 -84 84q-82 0 -82 -82z" />
<glyph unicode="&#x2014;" d="M-777 1190q0 71 48 120.5t118 49.5h456q0 -34 -24 -58q-23 -28 -62 -28h-370q-77 0 -77 -75q0 -76 72 -76q68 0 68 74h103q0 -74 63 -74h65v-88h-68q-64 0 -94 35q-10 12 -18 36q-21 -34 -48 -52q-23 -16 -66 -19q-4 -1 -16 -1q-62 0 -106 46.5t-44 109.5z" />
<glyph unicode="&#x2018;" horiz-adv-x="360" d="M31 932h105l102 -155h-102z" />
<glyph unicode="&#x2019;" horiz-adv-x="360" d="M42 777l103 155h103l-103 -155h-103z" />
<glyph unicode="&#x201a;" d="M-465 982v312h102v-312h-102z" />
<glyph unicode="&#x201c;" horiz-adv-x="620" d="M31 932h105l102 -155h-102zM238 932h103l104 -155h-104z" />
<glyph unicode="&#x201d;" horiz-adv-x="620" d="M42 777l103 155h103l-103 -155h-103zM250 777l103 155h103l-101 -155h-105z" />
<glyph unicode="&#x201e;" d="M-611 1137v127q0 48 41 76q37 26 87 26q59 0 94 -52q31 43 86 52q6 1 15 1q48 0 85.5 -29t37.5 -76v-51h82v-74h-155v105q0 52 -61 52q-52 0 -76 -52q-8 -17 -14 -52q-4 35 -11 52q-22 52 -76 52q-63 0 -63 -52v-105h-72z" />
<glyph unicode="&#x2020;" d="M-414 1087v103q0 21 11 31t26 10h253v-72h-186v-72h-104z" />
<glyph unicode="&#x2021;" d="M-260 982v260h105v-260h-105z" />
<glyph unicode="&#x2022;" d="M-620 1137v208h103v-103h465v-105h-568z" />
<glyph unicode="&#x2026;" d="M-620 1137v105h155v103h102v-103h155v-105h-155v-102h-102v102h-155z" />
<glyph unicode="&#x202f;" horiz-adv-x="340" />
<glyph unicode="&#x2030;" d="M-631 982v127q0 49 41 77q37 25 88 25q60 -6 93 -52q34 52 88 52q8 1 12 1q48 0 84 -28q39 -31 39 -78v-50h83v-74h-157v105q0 50 -61 50q-53 0 -75 -51q-7 -15 -13 -51q-4 35 -11 51q-22 51 -77 51q-62 0 -62 -50v-105h-72z" />
<glyph unicode="&#x2039;" d="M-414 932v103q0 21 11 31t26 10h274v-72h-207v-72h-104z" />
<glyph unicode="&#x203a;" d="M-414 1464v103h154v104h105v-104h155v-103h-155v-105h-105v105h-154z" />
<glyph unicode="&#x205f;" horiz-adv-x="425" />
<glyph unicode="&#x2122;" d="M-325 1461v103h155v-103h311v-104h-415v104h-51z" />
<glyph unicode="&#x2212;" horiz-adv-x="1023" d="M0 0v539q0 119 70 201q74 87 190 87q115 0 188 -88q69 -83 69 -200v-336q0 -47 40 -75q36 -25 85 -25t84 25q40 28 40 75v624h103v-829q0 -88 -67.5 -147t-156.5 -59q-84 0 -140 36q-17 11 -40 36v105q31 -25 62 -51q37 -21 118 -21q40 0 80.5 31t40.5 70v52 q-45 -50 -124 -50q-86 0 -155 58q-73 61 -73 145v336q0 74 -39 127q-44 58 -115 58q-73 0 -117 -57q-40 -53 -40 -128v-539h-103z" />
<glyph unicode="&#x25fc;" horiz-adv-x="650" d="M0 0v650h650v-650h-650z" />
<glyph unicode="&#xf700;" horiz-adv-x="777" d="M0 539q0 124 94 208q90 80 216 80q49 0 104 -17l31 -13q17 -7 31 -16q7 -7 17 -7q8 0 13 5q11 3 11 19v134h103v-932h-103v363h-207v102h207v52q0 86 -60.5 146.5t-146.5 60.5q-89 0 -148 -64t-59 -154z" />
<glyph unicode="&#xf701;" d="M-762 1137v105h607v-105h-607z" />
<glyph unicode="&#xf702;" d="M-762 1087v103h519v104h102v-207h-621z" />
<glyph unicode="&#xf703;" d="M-777 1076v102h409v28q0 53 38.5 91.5t91.5 38.5q54 0 91 -38t37 -92q0 -56 -36 -93t-92 -37h-539zM-309 1206q0 -73 71 -73t71 73q0 74 -71 74t-71 -74z" />
<glyph unicode="&#xf704;" d="M-777 1087v103h357v104h83v-207h-440zM-260 1087v207h105v-207h-105z" />
<glyph unicode="&#xf705;" d="M-465 982v312h102v-312h-102z" />
<glyph unicode="&#xf706;" d="M-465 1294v103h155v-155h258v-105h-362v157h-51z" />
<glyph unicode="&#xf707;" d="M-611 1137v127q0 48 41 76q37 26 87 26q59 0 94 -52q31 43 86 52q6 1 15 1q48 0 85.5 -29t37.5 -76v-51h82v-74h-155v105q0 52 -61 52q-52 0 -76 -52q-8 -17 -14 -52q-4 35 -11 52q-22 52 -76 52q-63 0 -63 -52v-105h-72z" />
<glyph unicode="&#xf708;" d="M-620 1137v105h155v103h102v-103h155v-105h-155v-102h-102v102h-155z" />
<glyph unicode="&#xf709;" d="M-414 1087v103q0 21 11 31t26 10h253v-72h-186v-72h-104z" />
<glyph unicode="&#xf70a;" d="M-260 982v260h105v-260h-105z" />
<glyph unicode="&#xf70b;" d="M-620 1137v105h155v-155h310v-105h-414v155h-51z" />
<glyph unicode="&#xf70c;" d="M-631 982v127q0 49 41 77q37 25 88 25q60 -6 93 -52q34 52 88 52q8 1 12 1q48 0 84 -28q39 -31 39 -78v-50h83v-74h-157v105q0 50 -61 50q-53 0 -75 -51q-7 -15 -13 -51q-4 35 -11 51q-22 51 -77 51q-62 0 -62 -50v-105h-72z" />
<glyph unicode="&#xf70d;" d="M-414 1087v103h154v104h105v-104h155v-103h-155v-105h-105v105h-154z" />
<glyph unicode="&#xf70e;" d="M-414 932v103q0 21 11 31t26 10h274v-72h-207v-72h-104z" />
<glyph unicode="&#xf70f;" horiz-adv-x="1023" d="M0 0v517q0 310 260 310q257 0 257 -310v-268q0 -56 34 -99q37 -47 91 -47q55 0 91 47q33 43 33 99v578h103v-578q0 -95 -65 -170q-68 -79 -162 -79q-98 0 -163 75t-65 174v268q0 207 -154 207q-157 0 -157 -207v-517h-103z" />
<glyph unicode="&#xf710;" d="M-620 1137v208h103v-103h465v-105h-568z" />
<glyph unicode="&#xf711;" d="M-572 1087q0 68 43 111.5t111 43.5q69 0 112 -43.5t43 -111.5t-43 -111.5t-112 -43.5q-68 0 -111 43.5t-43 111.5zM-500 1088q0 -84 84 -84q82 0 82 82q0 84 -84 84q-82 0 -82 -82z" />
<glyph unicode="&#xf712;" d="M-777 1190q0 71 48 120.5t118 49.5h456q0 -34 -24 -58q-23 -28 -62 -28h-370q-77 0 -77 -75q0 -76 72 -76q68 0 68 74h103q0 -74 63 -74h65v-88h-68q-64 0 -94 35q-10 12 -18 36q-21 -34 -48 -52q-23 -16 -66 -19q-4 -1 -16 -1q-62 0 -106 46.5t-44 109.5z" />
<glyph unicode="&#xf713;" d="M-260 1355v234h105v-234h-105z" />
<glyph unicode="&#xf714;" d="M-325 1461v103h155v-103h311v-104h-415v104h-51z" />
<glyph unicode="&#xf715;" d="M-444 1349v125q0 104 108 104q69 0 114 -54q40 52 88 52q8 1 12 1q49 0 86.5 -29t37.5 -77v-50h82v-72h-154v103q0 21 -20 36t-42 15q-52 0 -76 -52q-8 -17 -14 -52q-4 35 -11 52q-22 52 -75 52q-63 0 -63 -51v-103h-73z" />
<glyph unicode="&#xf716;" d="M-414 1464v103h154v104h105v-104h155v-103h-155v-105h-105v105h-154z" />
<glyph unicode="&#xf717;" d="M-389 1354v103q0 22 12 30q9 11 26 11h222v-72h-156v-72h-104z" />
<glyph unicode="&#xf718;" d="M-363 -304h208v-218h-105v115h-103v103z" />
<glyph unicode="&#xf719;" d="M-590 -304h102q0 -43 28 -73t71 -30q42 0 70.5 30.5t28.5 72.5h104q0 -87 -59 -147.5t-146 -60.5q-84 0 -141.5 62t-57.5 146z" />
<glyph unicode="&#xf71a;" d="M-312 -392q0 67 69 67t69 -67t-69 -67t-69 67z" />
<glyph unicode="&#xf71b;" d="M-615 0v1024h615v-1024h-615z" />
<glyph unicode="&#xf71c;" horiz-adv-x="455" />
<glyph unicode="&#xf71d;" horiz-adv-x="455" d="M24 -4h406v-180h-98v67h-215v-67h-93v180z" />
</font>
</defs>
</svg>
